%TF.GenerationSoftware,KiCad,Pcbnew,7.0.10*%
%TF.CreationDate,2025-04-16T22:41:53-06:00*%
%TF.ProjectId,Afinador_pcb,4166696e-6164-46f7-925f-7063622e6b69,rev?*%
%TF.SameCoordinates,Original*%
%TF.FileFunction,Soldermask,Top*%
%TF.FilePolarity,Negative*%
%FSLAX46Y46*%
G04 Gerber Fmt 4.6, Leading zero omitted, Abs format (unit mm)*
G04 Created by KiCad (PCBNEW 7.0.10) date 2025-04-16 22:41:53*
%MOMM*%
%LPD*%
G01*
G04 APERTURE LIST*
G04 Aperture macros list*
%AMRoundRect*
0 Rectangle with rounded corners*
0 $1 Rounding radius*
0 $2 $3 $4 $5 $6 $7 $8 $9 X,Y pos of 4 corners*
0 Add a 4 corners polygon primitive as box body*
4,1,4,$2,$3,$4,$5,$6,$7,$8,$9,$2,$3,0*
0 Add four circle primitives for the rounded corners*
1,1,$1+$1,$2,$3*
1,1,$1+$1,$4,$5*
1,1,$1+$1,$6,$7*
1,1,$1+$1,$8,$9*
0 Add four rect primitives between the rounded corners*
20,1,$1+$1,$2,$3,$4,$5,0*
20,1,$1+$1,$4,$5,$6,$7,0*
20,1,$1+$1,$6,$7,$8,$9,0*
20,1,$1+$1,$8,$9,$2,$3,0*%
%AMFreePoly0*
4,1,25,0.403796,0.945077,0.459315,0.905684,0.905684,0.459315,0.953797,0.382744,0.965200,0.315631,0.965200,-0.315631,0.945077,-0.403796,0.905684,-0.459315,0.459315,-0.905684,0.382744,-0.953797,0.315631,-0.965200,-0.315631,-0.965200,-0.403796,-0.945077,-0.459315,-0.905684,-0.905684,-0.459315,-0.953797,-0.382744,-0.965200,-0.315631,-0.965200,0.315631,-0.945077,0.403796,-0.905684,0.459315,
-0.459315,0.905684,-0.382744,0.953797,-0.315631,0.965200,0.315631,0.965200,0.403796,0.945077,0.403796,0.945077,$1*%
%AMFreePoly1*
4,1,25,0.435359,1.021277,0.490878,0.981884,0.981884,0.490878,1.029997,0.414307,1.041400,0.347194,1.041400,-0.347194,1.021277,-0.435359,0.981884,-0.490878,0.490878,-0.981884,0.414307,-1.029997,0.347194,-1.041400,-0.347194,-1.041400,-0.435359,-1.021277,-0.490878,-0.981884,-0.981884,-0.490878,-1.029997,-0.414307,-1.041400,-0.347194,-1.041400,0.347194,-1.021277,0.435359,-0.981884,0.490878,
-0.490878,0.981884,-0.414307,1.029997,-0.347194,1.041400,0.347194,1.041400,0.435359,1.021277,0.435359,1.021277,$1*%
G04 Aperture macros list end*
%ADD10C,3.000000*%
%ADD11FreePoly0,90.000000*%
%ADD12FreePoly0,270.000000*%
%ADD13FreePoly1,180.000000*%
%ADD14FreePoly1,270.000000*%
%ADD15FreePoly0,180.000000*%
%ADD16RoundRect,0.203200X0.762000X0.762000X-0.762000X0.762000X-0.762000X-0.762000X0.762000X-0.762000X0*%
%ADD17RoundRect,0.250001X-0.462499X-1.074999X0.462499X-1.074999X0.462499X1.074999X-0.462499X1.074999X0*%
%ADD18RoundRect,0.250001X0.462499X1.074999X-0.462499X1.074999X-0.462499X-1.074999X0.462499X-1.074999X0*%
%ADD19C,2.340000*%
%ADD20O,1.600000X1.600000*%
%ADD21R,1.600000X1.600000*%
%ADD22RoundRect,0.249999X1.425001X-0.512501X1.425001X0.512501X-1.425001X0.512501X-1.425001X-0.512501X0*%
%ADD23RoundRect,0.249999X-0.512501X-1.425001X0.512501X-1.425001X0.512501X1.425001X-0.512501X1.425001X0*%
%ADD24RoundRect,0.250000X-0.625000X0.400000X-0.625000X-0.400000X0.625000X-0.400000X0.625000X0.400000X0*%
%ADD25RoundRect,0.249999X-1.425001X0.512501X-1.425001X-0.512501X1.425001X-0.512501X1.425001X0.512501X0*%
%ADD26RoundRect,0.249999X0.512501X1.425001X-0.512501X1.425001X-0.512501X-1.425001X0.512501X-1.425001X0*%
G04 APERTURE END LIST*
D10*
%TO.C,J2*%
X93204800Y-136455600D03*
X109689400Y-136404800D03*
X101485200Y-136430200D03*
%TD*%
D11*
%TO.C,MSP430F5529LP1*%
X91516200Y-118160800D03*
X94056200Y-118160800D03*
D12*
X116916200Y-118160800D03*
D11*
X91516200Y-115620800D03*
X94056200Y-115620800D03*
D12*
X116916200Y-115620800D03*
D11*
X91516200Y-113080800D03*
X94056200Y-113080800D03*
D12*
X116916200Y-113080800D03*
D11*
X91516200Y-110540800D03*
X94056200Y-110540800D03*
D12*
X116916200Y-110540800D03*
D13*
X48415000Y-108001400D03*
X53417400Y-108001400D03*
D11*
X91516200Y-108000800D03*
X94056200Y-108000800D03*
D12*
X116916200Y-108000800D03*
D11*
X91516200Y-105460800D03*
X94056200Y-105460800D03*
D12*
X116916200Y-105460800D03*
D11*
X91541600Y-102920800D03*
X94081600Y-102920800D03*
D12*
X116916200Y-102920800D03*
D11*
X91516200Y-100380800D03*
X94056200Y-100380800D03*
X91516200Y-97840800D03*
X94056200Y-97840800D03*
X48336200Y-95300800D03*
X50876200Y-95300800D03*
D12*
X91516200Y-95300800D03*
X94056200Y-95300800D03*
D14*
X88976800Y-87602000D03*
D13*
X48415000Y-82601400D03*
X53417400Y-82601400D03*
D14*
X88976800Y-82599600D03*
X88976800Y-77442000D03*
D12*
X50876200Y-118160800D03*
X53416200Y-118160800D03*
X50876200Y-72440800D03*
X53416200Y-72440800D03*
D15*
X58496200Y-118160800D03*
X61036200Y-118160800D03*
X63576200Y-118160800D03*
X66116200Y-118160800D03*
X68656200Y-118160800D03*
X71196200Y-118160800D03*
D14*
X88976800Y-72439600D03*
D15*
X73736200Y-118160800D03*
X76276200Y-118160800D03*
X78816200Y-118160800D03*
X58496200Y-115620800D03*
X61036200Y-115620800D03*
X63576200Y-115620800D03*
X66116200Y-115620800D03*
X68656200Y-115620800D03*
X71196200Y-115620800D03*
X73736200Y-115620800D03*
X76276200Y-115620800D03*
X78816200Y-115620800D03*
X81356200Y-115620800D03*
X58496200Y-74980800D03*
X61036200Y-74980800D03*
X63576200Y-74980800D03*
X66116200Y-74980800D03*
X68656200Y-74980800D03*
X71196200Y-74980800D03*
X73736200Y-74980800D03*
X76276200Y-74980800D03*
D16*
X81356200Y-118160800D03*
D15*
X78816200Y-74980800D03*
D16*
X81356200Y-74980800D03*
D12*
X48336200Y-72440800D03*
D15*
X58496200Y-72440800D03*
X61036200Y-72440800D03*
X63576200Y-72440800D03*
X66116200Y-72440800D03*
X68656200Y-72440800D03*
X71196200Y-72440800D03*
X73736200Y-72440800D03*
X76276200Y-72440800D03*
X78816200Y-72440800D03*
D12*
X48336200Y-118160800D03*
D15*
X81356200Y-72440800D03*
%TD*%
D17*
%TO.C,Under1*%
X59396300Y-49098200D03*
X62371300Y-49098200D03*
%TD*%
D18*
%TO.C,Sostenido1*%
X96991500Y-31724600D03*
X94016500Y-31724600D03*
%TD*%
D17*
%TO.C,right1*%
X78243100Y-27736800D03*
X81218100Y-27736800D03*
%TD*%
D18*
%TO.C,Over1*%
X97093100Y-49098200D03*
X94118100Y-49098200D03*
%TD*%
D17*
%TO.C,Bemol1*%
X59309000Y-33578800D03*
X62284000Y-33578800D03*
%TD*%
D19*
%TO.C,RV1*%
X47147400Y-143303000D03*
X47147400Y-138303000D03*
X47147400Y-133303000D03*
%TD*%
D20*
%TO.C,U1*%
X72913400Y-143621600D03*
X70373400Y-143621600D03*
X67833400Y-143621600D03*
X65293400Y-143621600D03*
X65293400Y-136001600D03*
X67833400Y-136001600D03*
X70373400Y-136001600D03*
D21*
X72913400Y-136001600D03*
%TD*%
D22*
%TO.C,F1*%
X72577500Y-36484100D03*
X72577500Y-42459100D03*
%TD*%
D23*
%TO.C,G1*%
X76666900Y-44297600D03*
X82641900Y-44297600D03*
%TD*%
D24*
%TO.C,R6*%
X73075800Y-63322800D03*
X73075800Y-60222800D03*
%TD*%
%TO.C,R3*%
X82143600Y-63373600D03*
X82143600Y-60273600D03*
%TD*%
D25*
%TO.C,B1*%
X86623700Y-42449400D03*
X86623700Y-36474400D03*
%TD*%
D24*
%TO.C,R2*%
X88519000Y-60273600D03*
X88519000Y-63373600D03*
%TD*%
D26*
%TO.C,A1*%
X76539900Y-33528000D03*
X82514900Y-33528000D03*
%TD*%
D24*
%TO.C,R5*%
X75844400Y-63322800D03*
X75844400Y-60222800D03*
%TD*%
D26*
%TO.C,D1*%
X76616100Y-55168800D03*
X82591100Y-55168800D03*
%TD*%
D24*
%TO.C,R9*%
X94335600Y-60299000D03*
X94335600Y-63399000D03*
%TD*%
%TO.C,R12*%
X91389200Y-60273600D03*
X91389200Y-63373600D03*
%TD*%
%TO.C,R8*%
X67132200Y-60248200D03*
X67132200Y-63348200D03*
%TD*%
%TO.C,R1*%
X70053200Y-60222800D03*
X70053200Y-63322800D03*
%TD*%
D25*
%TO.C,E1*%
X72602900Y-46101000D03*
X72602900Y-52076000D03*
%TD*%
D24*
%TO.C,R11*%
X97028000Y-60273600D03*
X97028000Y-63373600D03*
%TD*%
%TO.C,R4*%
X78943200Y-63373600D03*
X78943200Y-60273600D03*
%TD*%
%TO.C,R10*%
X63931800Y-60197400D03*
X63931800Y-63297400D03*
%TD*%
D25*
%TO.C,C1*%
X86699900Y-52126800D03*
X86699900Y-46151800D03*
%TD*%
D24*
%TO.C,R7*%
X85496400Y-63399000D03*
X85496400Y-60299000D03*
%TD*%
M02*
