%TF.GenerationSoftware,KiCad,Pcbnew,7.0.10*%
%TF.CreationDate,2025-04-16T22:41:53-06:00*%
%TF.ProjectId,Afinador_pcb,4166696e-6164-46f7-925f-7063622e6b69,rev?*%
%TF.SameCoordinates,Original*%
%TF.FileFunction,Paste,Top*%
%TF.FilePolarity,Positive*%
%FSLAX46Y46*%
G04 Gerber Fmt 4.6, Leading zero omitted, Abs format (unit mm)*
G04 Created by KiCad (PCBNEW 7.0.10) date 2025-04-16 22:41:53*
%MOMM*%
%LPD*%
G01*
G04 APERTURE LIST*
G04 Aperture macros list*
%AMRoundRect*
0 Rectangle with rounded corners*
0 $1 Rounding radius*
0 $2 $3 $4 $5 $6 $7 $8 $9 X,Y pos of 4 corners*
0 Add a 4 corners polygon primitive as box body*
4,1,4,$2,$3,$4,$5,$6,$7,$8,$9,$2,$3,0*
0 Add four circle primitives for the rounded corners*
1,1,$1+$1,$2,$3*
1,1,$1+$1,$4,$5*
1,1,$1+$1,$6,$7*
1,1,$1+$1,$8,$9*
0 Add four rect primitives between the rounded corners*
20,1,$1+$1,$2,$3,$4,$5,0*
20,1,$1+$1,$4,$5,$6,$7,0*
20,1,$1+$1,$6,$7,$8,$9,0*
20,1,$1+$1,$8,$9,$2,$3,0*%
G04 Aperture macros list end*
%ADD10RoundRect,0.250001X-0.462499X-1.074999X0.462499X-1.074999X0.462499X1.074999X-0.462499X1.074999X0*%
%ADD11RoundRect,0.250001X0.462499X1.074999X-0.462499X1.074999X-0.462499X-1.074999X0.462499X-1.074999X0*%
%ADD12RoundRect,0.249999X1.425001X-0.512501X1.425001X0.512501X-1.425001X0.512501X-1.425001X-0.512501X0*%
%ADD13RoundRect,0.249999X-0.512501X-1.425001X0.512501X-1.425001X0.512501X1.425001X-0.512501X1.425001X0*%
%ADD14RoundRect,0.250000X-0.625000X0.400000X-0.625000X-0.400000X0.625000X-0.400000X0.625000X0.400000X0*%
%ADD15RoundRect,0.249999X-1.425001X0.512501X-1.425001X-0.512501X1.425001X-0.512501X1.425001X0.512501X0*%
%ADD16RoundRect,0.249999X0.512501X1.425001X-0.512501X1.425001X-0.512501X-1.425001X0.512501X-1.425001X0*%
G04 APERTURE END LIST*
D10*
%TO.C,Under1*%
X59396300Y-49098200D03*
X62371300Y-49098200D03*
%TD*%
D11*
%TO.C,Sostenido1*%
X96991500Y-31724600D03*
X94016500Y-31724600D03*
%TD*%
D10*
%TO.C,right1*%
X78243100Y-27736800D03*
X81218100Y-27736800D03*
%TD*%
D11*
%TO.C,Over1*%
X97093100Y-49098200D03*
X94118100Y-49098200D03*
%TD*%
D10*
%TO.C,Bemol1*%
X59309000Y-33578800D03*
X62284000Y-33578800D03*
%TD*%
D12*
%TO.C,F1*%
X72577500Y-36484100D03*
X72577500Y-42459100D03*
%TD*%
D13*
%TO.C,G1*%
X76666900Y-44297600D03*
X82641900Y-44297600D03*
%TD*%
D14*
%TO.C,R6*%
X73075800Y-63322800D03*
X73075800Y-60222800D03*
%TD*%
%TO.C,R3*%
X82143600Y-63373600D03*
X82143600Y-60273600D03*
%TD*%
D15*
%TO.C,B1*%
X86623700Y-42449400D03*
X86623700Y-36474400D03*
%TD*%
D14*
%TO.C,R2*%
X88519000Y-60273600D03*
X88519000Y-63373600D03*
%TD*%
D16*
%TO.C,A1*%
X76539900Y-33528000D03*
X82514900Y-33528000D03*
%TD*%
D14*
%TO.C,R5*%
X75844400Y-63322800D03*
X75844400Y-60222800D03*
%TD*%
D16*
%TO.C,D1*%
X76616100Y-55168800D03*
X82591100Y-55168800D03*
%TD*%
D14*
%TO.C,R9*%
X94335600Y-60299000D03*
X94335600Y-63399000D03*
%TD*%
%TO.C,R12*%
X91389200Y-60273600D03*
X91389200Y-63373600D03*
%TD*%
%TO.C,R8*%
X67132200Y-60248200D03*
X67132200Y-63348200D03*
%TD*%
%TO.C,R1*%
X70053200Y-60222800D03*
X70053200Y-63322800D03*
%TD*%
D15*
%TO.C,E1*%
X72602900Y-46101000D03*
X72602900Y-52076000D03*
%TD*%
D14*
%TO.C,R11*%
X97028000Y-60273600D03*
X97028000Y-63373600D03*
%TD*%
%TO.C,R4*%
X78943200Y-63373600D03*
X78943200Y-60273600D03*
%TD*%
%TO.C,R10*%
X63931800Y-60197400D03*
X63931800Y-63297400D03*
%TD*%
D15*
%TO.C,C1*%
X86699900Y-52126800D03*
X86699900Y-46151800D03*
%TD*%
D14*
%TO.C,R7*%
X85496400Y-63399000D03*
X85496400Y-60299000D03*
%TD*%
M02*
