%TF.GenerationSoftware,KiCad,Pcbnew,7.0.10*%
%TF.CreationDate,2025-04-16T22:41:53-06:00*%
%TF.ProjectId,Afinador_pcb,4166696e-6164-46f7-925f-7063622e6b69,rev?*%
%TF.SameCoordinates,Original*%
%TF.FileFunction,Soldermask,Bot*%
%TF.FilePolarity,Negative*%
%FSLAX46Y46*%
G04 Gerber Fmt 4.6, Leading zero omitted, Abs format (unit mm)*
G04 Created by KiCad (PCBNEW 7.0.10) date 2025-04-16 22:41:53*
%MOMM*%
%LPD*%
G01*
G04 APERTURE LIST*
G04 Aperture macros list*
%AMRoundRect*
0 Rectangle with rounded corners*
0 $1 Rounding radius*
0 $2 $3 $4 $5 $6 $7 $8 $9 X,Y pos of 4 corners*
0 Add a 4 corners polygon primitive as box body*
4,1,4,$2,$3,$4,$5,$6,$7,$8,$9,$2,$3,0*
0 Add four circle primitives for the rounded corners*
1,1,$1+$1,$2,$3*
1,1,$1+$1,$4,$5*
1,1,$1+$1,$6,$7*
1,1,$1+$1,$8,$9*
0 Add four rect primitives between the rounded corners*
20,1,$1+$1,$2,$3,$4,$5,0*
20,1,$1+$1,$4,$5,$6,$7,0*
20,1,$1+$1,$6,$7,$8,$9,0*
20,1,$1+$1,$8,$9,$2,$3,0*%
%AMFreePoly0*
4,1,25,0.403796,0.945077,0.459315,0.905684,0.905684,0.459315,0.953797,0.382744,0.965200,0.315631,0.965200,-0.315631,0.945077,-0.403796,0.905684,-0.459315,0.459315,-0.905684,0.382744,-0.953797,0.315631,-0.965200,-0.315631,-0.965200,-0.403796,-0.945077,-0.459315,-0.905684,-0.905684,-0.459315,-0.953797,-0.382744,-0.965200,-0.315631,-0.965200,0.315631,-0.945077,0.403796,-0.905684,0.459315,
-0.459315,0.905684,-0.382744,0.953797,-0.315631,0.965200,0.315631,0.965200,0.403796,0.945077,0.403796,0.945077,$1*%
%AMFreePoly1*
4,1,25,0.435359,1.021277,0.490878,0.981884,0.981884,0.490878,1.029997,0.414307,1.041400,0.347194,1.041400,-0.347194,1.021277,-0.435359,0.981884,-0.490878,0.490878,-0.981884,0.414307,-1.029997,0.347194,-1.041400,-0.347194,-1.041400,-0.435359,-1.021277,-0.490878,-0.981884,-0.981884,-0.490878,-1.029997,-0.414307,-1.041400,-0.347194,-1.041400,0.347194,-1.021277,0.435359,-0.981884,0.490878,
-0.490878,0.981884,-0.414307,1.029997,-0.347194,1.041400,0.347194,1.041400,0.435359,1.021277,0.435359,1.021277,$1*%
G04 Aperture macros list end*
%ADD10C,3.000000*%
%ADD11FreePoly0,90.000000*%
%ADD12FreePoly0,270.000000*%
%ADD13FreePoly1,180.000000*%
%ADD14FreePoly1,270.000000*%
%ADD15FreePoly0,180.000000*%
%ADD16RoundRect,0.203200X0.762000X0.762000X-0.762000X0.762000X-0.762000X-0.762000X0.762000X-0.762000X0*%
%ADD17C,2.340000*%
%ADD18O,1.600000X1.600000*%
%ADD19R,1.600000X1.600000*%
G04 APERTURE END LIST*
D10*
%TO.C,J2*%
X93204800Y-136455600D03*
X109689400Y-136404800D03*
X101485200Y-136430200D03*
%TD*%
D11*
%TO.C,MSP430F5529LP1*%
X91516200Y-118160800D03*
X94056200Y-118160800D03*
D12*
X116916200Y-118160800D03*
D11*
X91516200Y-115620800D03*
X94056200Y-115620800D03*
D12*
X116916200Y-115620800D03*
D11*
X91516200Y-113080800D03*
X94056200Y-113080800D03*
D12*
X116916200Y-113080800D03*
D11*
X91516200Y-110540800D03*
X94056200Y-110540800D03*
D12*
X116916200Y-110540800D03*
D13*
X48415000Y-108001400D03*
X53417400Y-108001400D03*
D11*
X91516200Y-108000800D03*
X94056200Y-108000800D03*
D12*
X116916200Y-108000800D03*
D11*
X91516200Y-105460800D03*
X94056200Y-105460800D03*
D12*
X116916200Y-105460800D03*
D11*
X91541600Y-102920800D03*
X94081600Y-102920800D03*
D12*
X116916200Y-102920800D03*
D11*
X91516200Y-100380800D03*
X94056200Y-100380800D03*
X91516200Y-97840800D03*
X94056200Y-97840800D03*
X48336200Y-95300800D03*
X50876200Y-95300800D03*
D12*
X91516200Y-95300800D03*
X94056200Y-95300800D03*
D14*
X88976800Y-87602000D03*
D13*
X48415000Y-82601400D03*
X53417400Y-82601400D03*
D14*
X88976800Y-82599600D03*
X88976800Y-77442000D03*
D12*
X50876200Y-118160800D03*
X53416200Y-118160800D03*
X50876200Y-72440800D03*
X53416200Y-72440800D03*
D15*
X58496200Y-118160800D03*
X61036200Y-118160800D03*
X63576200Y-118160800D03*
X66116200Y-118160800D03*
X68656200Y-118160800D03*
X71196200Y-118160800D03*
D14*
X88976800Y-72439600D03*
D15*
X73736200Y-118160800D03*
X76276200Y-118160800D03*
X78816200Y-118160800D03*
X58496200Y-115620800D03*
X61036200Y-115620800D03*
X63576200Y-115620800D03*
X66116200Y-115620800D03*
X68656200Y-115620800D03*
X71196200Y-115620800D03*
X73736200Y-115620800D03*
X76276200Y-115620800D03*
X78816200Y-115620800D03*
X81356200Y-115620800D03*
X58496200Y-74980800D03*
X61036200Y-74980800D03*
X63576200Y-74980800D03*
X66116200Y-74980800D03*
X68656200Y-74980800D03*
X71196200Y-74980800D03*
X73736200Y-74980800D03*
X76276200Y-74980800D03*
D16*
X81356200Y-118160800D03*
D15*
X78816200Y-74980800D03*
D16*
X81356200Y-74980800D03*
D12*
X48336200Y-72440800D03*
D15*
X58496200Y-72440800D03*
X61036200Y-72440800D03*
X63576200Y-72440800D03*
X66116200Y-72440800D03*
X68656200Y-72440800D03*
X71196200Y-72440800D03*
X73736200Y-72440800D03*
X76276200Y-72440800D03*
X78816200Y-72440800D03*
D12*
X48336200Y-118160800D03*
D15*
X81356200Y-72440800D03*
%TD*%
D17*
%TO.C,RV1*%
X47147400Y-143303000D03*
X47147400Y-138303000D03*
X47147400Y-133303000D03*
%TD*%
D18*
%TO.C,U1*%
X72913400Y-143621600D03*
X70373400Y-143621600D03*
X67833400Y-143621600D03*
X65293400Y-143621600D03*
X65293400Y-136001600D03*
X67833400Y-136001600D03*
X70373400Y-136001600D03*
D19*
X72913400Y-136001600D03*
%TD*%
M02*
