%TF.GenerationSoftware,KiCad,Pcbnew,7.0.10*%
%TF.CreationDate,2025-04-16T22:41:38-06:00*%
%TF.ProjectId,Afinador_pcb,4166696e-6164-46f7-925f-7063622e6b69,rev?*%
%TF.SameCoordinates,Original*%
%TF.FileFunction,Drillmap*%
%TF.FilePolarity,Positive*%
%FSLAX45Y45*%
G04 Gerber Fmt 4.5, Leading zero omitted, Abs format (unit mm)*
G04 Created by KiCad (PCBNEW 7.0.10) date 2025-04-16 22:41:38*
%MOMM*%
%LPD*%
G01*
G04 APERTURE LIST*
%ADD10C,0.200000*%
%ADD11C,0.100000*%
%ADD12C,0.101600*%
%ADD13C,0.130000*%
%ADD14C,0.140000*%
G04 APERTURE END LIST*
D10*
D11*
X4823960Y-12109020D02*
X4863960Y-12149020D01*
X4863960Y-12109020D02*
X4823960Y-12149020D01*
X5956620Y-12128820D02*
X5996620Y-12168820D01*
X5996620Y-12128820D02*
X5956620Y-12168820D01*
X5956620Y-12128820D02*
X5996620Y-12168820D01*
X5996620Y-12128820D02*
X5956620Y-12168820D01*
X6921820Y-12243120D02*
X6961820Y-12283120D01*
X6961820Y-12243120D02*
X6921820Y-12283120D01*
X6921820Y-12243120D02*
X6961820Y-12283120D01*
X6961820Y-12243120D02*
X6921820Y-12283120D01*
X7010720Y-12133900D02*
X7050720Y-12173900D01*
X7050720Y-12133900D02*
X7010720Y-12173900D01*
X7935280Y-12052620D02*
X7975280Y-12092620D01*
X7975280Y-12052620D02*
X7935280Y-12092620D01*
X8052120Y-7012100D02*
X8092120Y-7052100D01*
X8092120Y-7012100D02*
X8052120Y-7052100D01*
X8450900Y-11095040D02*
X8490900Y-11135040D01*
X8490900Y-11095040D02*
X8450900Y-11135040D01*
X8450900Y-11095040D02*
X8490900Y-11135040D01*
X8490900Y-11095040D02*
X8450900Y-11135040D01*
X8450900Y-11095040D02*
X8490900Y-11135040D01*
X8490900Y-11095040D02*
X8450900Y-11135040D01*
X8529640Y-6596700D02*
X8569640Y-6636700D01*
X8569640Y-6596700D02*
X8529640Y-6636700D01*
X8529640Y-6596700D02*
X8569640Y-6636700D01*
X8569640Y-6596700D02*
X8529640Y-6636700D01*
X8547420Y-10927400D02*
X8587420Y-10967400D01*
X8587420Y-10927400D02*
X8547420Y-10967400D01*
X8547420Y-10927400D02*
X8587420Y-10967400D01*
X8587420Y-10927400D02*
X8547420Y-10967400D01*
X8669340Y-12189780D02*
X8709340Y-12229780D01*
X8709340Y-12189780D02*
X8669340Y-12229780D01*
X8669340Y-12189780D02*
X8709340Y-12229780D01*
X8709340Y-12189780D02*
X8669340Y-12229780D01*
X8971600Y-6939600D02*
X9011600Y-6979600D01*
X9011600Y-6939600D02*
X8971600Y-6979600D01*
X8971600Y-6939600D02*
X9011600Y-6979600D01*
X9011600Y-6939600D02*
X8971600Y-6979600D01*
X9299440Y-8931480D02*
X9339440Y-8971480D01*
X9339440Y-8931480D02*
X9299440Y-8971480D01*
X9299440Y-8931480D02*
X9339440Y-8971480D01*
X9339440Y-8931480D02*
X9299440Y-8971480D01*
X9329740Y-6700840D02*
X9369740Y-6740840D01*
X9369740Y-6700840D02*
X9329740Y-6740840D01*
X9329740Y-6700840D02*
X9369740Y-6740840D01*
X9369740Y-6700840D02*
X9329740Y-6740840D01*
X9609140Y-6507800D02*
X9649140Y-6547800D01*
X9649140Y-6507800D02*
X9609140Y-6547800D01*
X9610174Y-6508657D02*
X9650174Y-6548657D01*
X9650174Y-6508657D02*
X9610174Y-6548657D01*
X6569340Y-13600160D02*
G75*
G03*
X6489340Y-13600160I-40000J0D01*
G01*
X6489340Y-13600160D02*
G75*
G03*
X6569340Y-13600160I40000J0D01*
G01*
X6569340Y-14362160D02*
G75*
G03*
X6489340Y-14362160I-40000J0D01*
G01*
X6489340Y-14362160D02*
G75*
G03*
X6569340Y-14362160I40000J0D01*
G01*
X6823340Y-13600160D02*
G75*
G03*
X6743340Y-13600160I-40000J0D01*
G01*
X6743340Y-13600160D02*
G75*
G03*
X6823340Y-13600160I40000J0D01*
G01*
X6823340Y-14362160D02*
G75*
G03*
X6743340Y-14362160I-40000J0D01*
G01*
X6743340Y-14362160D02*
G75*
G03*
X6823340Y-14362160I40000J0D01*
G01*
X7077340Y-13600160D02*
G75*
G03*
X6997340Y-13600160I-40000J0D01*
G01*
X6997340Y-13600160D02*
G75*
G03*
X7077340Y-13600160I40000J0D01*
G01*
X7077340Y-14362160D02*
G75*
G03*
X6997340Y-14362160I-40000J0D01*
G01*
X6997340Y-14362160D02*
G75*
G03*
X7077340Y-14362160I40000J0D01*
G01*
X7331340Y-13600160D02*
G75*
G03*
X7251340Y-13600160I-40000J0D01*
G01*
X7251340Y-13600160D02*
G75*
G03*
X7331340Y-13600160I40000J0D01*
G01*
X7331340Y-14362160D02*
G75*
G03*
X7251340Y-14362160I-40000J0D01*
G01*
X7251340Y-14362160D02*
G75*
G03*
X7331340Y-14362160I40000J0D01*
G01*
X4833620Y-7198360D02*
X4833620Y-7289800D01*
X4787900Y-7244080D02*
X4879340Y-7244080D01*
X4833620Y-9484360D02*
X4833620Y-9575800D01*
X4787900Y-9530080D02*
X4879340Y-9530080D01*
X4833620Y-11770360D02*
X4833620Y-11861800D01*
X4787900Y-11816080D02*
X4879340Y-11816080D01*
X5087620Y-7198360D02*
X5087620Y-7289800D01*
X5041900Y-7244080D02*
X5133340Y-7244080D01*
X5087620Y-9484360D02*
X5087620Y-9575800D01*
X5041900Y-9530080D02*
X5133340Y-9530080D01*
X5087620Y-11770360D02*
X5087620Y-11861800D01*
X5041900Y-11816080D02*
X5133340Y-11816080D01*
X5341620Y-7198360D02*
X5341620Y-7289800D01*
X5295900Y-7244080D02*
X5387340Y-7244080D01*
X5341620Y-11770360D02*
X5341620Y-11861800D01*
X5295900Y-11816080D02*
X5387340Y-11816080D01*
X5849620Y-7198360D02*
X5849620Y-7289800D01*
X5803900Y-7244080D02*
X5895340Y-7244080D01*
X5849620Y-7452360D02*
X5849620Y-7543800D01*
X5803900Y-7498080D02*
X5895340Y-7498080D01*
X5849620Y-11516360D02*
X5849620Y-11607800D01*
X5803900Y-11562080D02*
X5895340Y-11562080D01*
X5849620Y-11770360D02*
X5849620Y-11861800D01*
X5803900Y-11816080D02*
X5895340Y-11816080D01*
X6103620Y-7198360D02*
X6103620Y-7289800D01*
X6057900Y-7244080D02*
X6149340Y-7244080D01*
X6103620Y-7452360D02*
X6103620Y-7543800D01*
X6057900Y-7498080D02*
X6149340Y-7498080D01*
X6103620Y-11516360D02*
X6103620Y-11607800D01*
X6057900Y-11562080D02*
X6149340Y-11562080D01*
X6103620Y-11770360D02*
X6103620Y-11861800D01*
X6057900Y-11816080D02*
X6149340Y-11816080D01*
X6357620Y-7198360D02*
X6357620Y-7289800D01*
X6311900Y-7244080D02*
X6403340Y-7244080D01*
X6357620Y-7452360D02*
X6357620Y-7543800D01*
X6311900Y-7498080D02*
X6403340Y-7498080D01*
X6357620Y-11516360D02*
X6357620Y-11607800D01*
X6311900Y-11562080D02*
X6403340Y-11562080D01*
X6357620Y-11770360D02*
X6357620Y-11861800D01*
X6311900Y-11816080D02*
X6403340Y-11816080D01*
X6611620Y-7198360D02*
X6611620Y-7289800D01*
X6565900Y-7244080D02*
X6657340Y-7244080D01*
X6611620Y-7452360D02*
X6611620Y-7543800D01*
X6565900Y-7498080D02*
X6657340Y-7498080D01*
X6611620Y-11516360D02*
X6611620Y-11607800D01*
X6565900Y-11562080D02*
X6657340Y-11562080D01*
X6611620Y-11770360D02*
X6611620Y-11861800D01*
X6565900Y-11816080D02*
X6657340Y-11816080D01*
X6865620Y-7198360D02*
X6865620Y-7289800D01*
X6819900Y-7244080D02*
X6911340Y-7244080D01*
X6865620Y-7452360D02*
X6865620Y-7543800D01*
X6819900Y-7498080D02*
X6911340Y-7498080D01*
X6865620Y-11516360D02*
X6865620Y-11607800D01*
X6819900Y-11562080D02*
X6911340Y-11562080D01*
X6865620Y-11770360D02*
X6865620Y-11861800D01*
X6819900Y-11816080D02*
X6911340Y-11816080D01*
X7119620Y-7198360D02*
X7119620Y-7289800D01*
X7073900Y-7244080D02*
X7165340Y-7244080D01*
X7119620Y-7452360D02*
X7119620Y-7543800D01*
X7073900Y-7498080D02*
X7165340Y-7498080D01*
X7119620Y-11516360D02*
X7119620Y-11607800D01*
X7073900Y-11562080D02*
X7165340Y-11562080D01*
X7119620Y-11770360D02*
X7119620Y-11861800D01*
X7073900Y-11816080D02*
X7165340Y-11816080D01*
X7373620Y-7198360D02*
X7373620Y-7289800D01*
X7327900Y-7244080D02*
X7419340Y-7244080D01*
X7373620Y-7452360D02*
X7373620Y-7543800D01*
X7327900Y-7498080D02*
X7419340Y-7498080D01*
X7373620Y-11516360D02*
X7373620Y-11607800D01*
X7327900Y-11562080D02*
X7419340Y-11562080D01*
X7373620Y-11770360D02*
X7373620Y-11861800D01*
X7327900Y-11816080D02*
X7419340Y-11816080D01*
X7627620Y-7198360D02*
X7627620Y-7289800D01*
X7581900Y-7244080D02*
X7673340Y-7244080D01*
X7627620Y-7452360D02*
X7627620Y-7543800D01*
X7581900Y-7498080D02*
X7673340Y-7498080D01*
X7627620Y-11516360D02*
X7627620Y-11607800D01*
X7581900Y-11562080D02*
X7673340Y-11562080D01*
X7627620Y-11770360D02*
X7627620Y-11861800D01*
X7581900Y-11816080D02*
X7673340Y-11816080D01*
X7881620Y-7198360D02*
X7881620Y-7289800D01*
X7835900Y-7244080D02*
X7927340Y-7244080D01*
X7881620Y-7452360D02*
X7881620Y-7543800D01*
X7835900Y-7498080D02*
X7927340Y-7498080D01*
X7881620Y-11516360D02*
X7881620Y-11607800D01*
X7835900Y-11562080D02*
X7927340Y-11562080D01*
X7881620Y-11770360D02*
X7881620Y-11861800D01*
X7835900Y-11816080D02*
X7927340Y-11816080D01*
X8135620Y-7198360D02*
X8135620Y-7289800D01*
X8089900Y-7244080D02*
X8181340Y-7244080D01*
X8135620Y-7452360D02*
X8135620Y-7543800D01*
X8089900Y-7498080D02*
X8181340Y-7498080D01*
X8135620Y-11516360D02*
X8135620Y-11607800D01*
X8089900Y-11562080D02*
X8181340Y-11562080D01*
X8135620Y-11770360D02*
X8135620Y-11861800D01*
X8089900Y-11816080D02*
X8181340Y-11816080D01*
X9151620Y-9484360D02*
X9151620Y-9575800D01*
X9105900Y-9530080D02*
X9197340Y-9530080D01*
X9151620Y-9738360D02*
X9151620Y-9829800D01*
X9105900Y-9784080D02*
X9197340Y-9784080D01*
X9151620Y-9992360D02*
X9151620Y-10083800D01*
X9105900Y-10038080D02*
X9197340Y-10038080D01*
X9151620Y-10500360D02*
X9151620Y-10591800D01*
X9105900Y-10546080D02*
X9197340Y-10546080D01*
X9151620Y-10754360D02*
X9151620Y-10845800D01*
X9105900Y-10800080D02*
X9197340Y-10800080D01*
X9151620Y-11008360D02*
X9151620Y-11099800D01*
X9105900Y-11054080D02*
X9197340Y-11054080D01*
X9151620Y-11262360D02*
X9151620Y-11353800D01*
X9105900Y-11308080D02*
X9197340Y-11308080D01*
X9151620Y-11516360D02*
X9151620Y-11607800D01*
X9105900Y-11562080D02*
X9197340Y-11562080D01*
X9151620Y-11770360D02*
X9151620Y-11861800D01*
X9105900Y-11816080D02*
X9197340Y-11816080D01*
X9154160Y-10246360D02*
X9154160Y-10337800D01*
X9108440Y-10292080D02*
X9199880Y-10292080D01*
X9405620Y-9484360D02*
X9405620Y-9575800D01*
X9359900Y-9530080D02*
X9451340Y-9530080D01*
X9405620Y-9738360D02*
X9405620Y-9829800D01*
X9359900Y-9784080D02*
X9451340Y-9784080D01*
X9405620Y-9992360D02*
X9405620Y-10083800D01*
X9359900Y-10038080D02*
X9451340Y-10038080D01*
X9405620Y-10500360D02*
X9405620Y-10591800D01*
X9359900Y-10546080D02*
X9451340Y-10546080D01*
X9405620Y-10754360D02*
X9405620Y-10845800D01*
X9359900Y-10800080D02*
X9451340Y-10800080D01*
X9405620Y-11008360D02*
X9405620Y-11099800D01*
X9359900Y-11054080D02*
X9451340Y-11054080D01*
X9405620Y-11262360D02*
X9405620Y-11353800D01*
X9359900Y-11308080D02*
X9451340Y-11308080D01*
X9405620Y-11516360D02*
X9405620Y-11607800D01*
X9359900Y-11562080D02*
X9451340Y-11562080D01*
X9405620Y-11770360D02*
X9405620Y-11861800D01*
X9359900Y-11816080D02*
X9451340Y-11816080D01*
X9408160Y-10246360D02*
X9408160Y-10337800D01*
X9362440Y-10292080D02*
X9453880Y-10292080D01*
X11691620Y-10246360D02*
X11691620Y-10337800D01*
X11645900Y-10292080D02*
X11737340Y-10292080D01*
X11691620Y-10500360D02*
X11691620Y-10591800D01*
X11645900Y-10546080D02*
X11737340Y-10546080D01*
X11691620Y-10754360D02*
X11691620Y-10845800D01*
X11645900Y-10800080D02*
X11737340Y-10800080D01*
X11691620Y-11008360D02*
X11691620Y-11099800D01*
X11645900Y-11054080D02*
X11737340Y-11054080D01*
X11691620Y-11262360D02*
X11691620Y-11353800D01*
X11645900Y-11308080D02*
X11737340Y-11308080D01*
X11691620Y-11516360D02*
X11691620Y-11607800D01*
X11645900Y-11562080D02*
X11737340Y-11562080D01*
X11691620Y-11770360D02*
X11691620Y-11861800D01*
X11645900Y-11816080D02*
X11737340Y-11816080D01*
D12*
X4877421Y-8296061D02*
X4877421Y-8224219D01*
X4805579Y-8224219D01*
X4805579Y-8296061D01*
X4877421Y-8296061D01*
X4877421Y-10836061D02*
X4877421Y-10764219D01*
X4805579Y-10764219D01*
X4805579Y-10836061D01*
X4877421Y-10836061D01*
X5377661Y-8296061D02*
X5377661Y-8224219D01*
X5305819Y-8224219D01*
X5305819Y-8296061D01*
X5377661Y-8296061D01*
X5377661Y-10836061D02*
X5377661Y-10764219D01*
X5305819Y-10764219D01*
X5305819Y-10836061D01*
X5377661Y-10836061D01*
X8933601Y-7279881D02*
X8933601Y-7208039D01*
X8861759Y-7208039D01*
X8861759Y-7279881D01*
X8933601Y-7279881D01*
X8933601Y-7780121D02*
X8933601Y-7708279D01*
X8861759Y-7708279D01*
X8861759Y-7780121D01*
X8933601Y-7780121D01*
X8933601Y-8295881D02*
X8933601Y-8224039D01*
X8861759Y-8224039D01*
X8861759Y-8295881D01*
X8933601Y-8295881D01*
X8933601Y-8796121D02*
X8933601Y-8724279D01*
X8861759Y-8724279D01*
X8861759Y-8796121D01*
X8933601Y-8796121D01*
D13*
X4714740Y-13395300D02*
X4779740Y-13330300D01*
X4714740Y-13265300D01*
X4649740Y-13330300D01*
X4714740Y-13395300D01*
X4714740Y-13895300D02*
X4779740Y-13830300D01*
X4714740Y-13765300D01*
X4649740Y-13830300D01*
X4714740Y-13895300D01*
X4714740Y-14395300D02*
X4779740Y-14330300D01*
X4714740Y-14265300D01*
X4649740Y-14330300D01*
X4714740Y-14395300D01*
D14*
X9250480Y-13575560D02*
X9390480Y-13715560D01*
X9390480Y-13575560D02*
X9250480Y-13715560D01*
X9390480Y-13645560D02*
G75*
G03*
X9250480Y-13645560I-70000J0D01*
G01*
X9250480Y-13645560D02*
G75*
G03*
X9390480Y-13645560I70000J0D01*
G01*
X10078520Y-13573020D02*
X10218520Y-13713020D01*
X10218520Y-13573020D02*
X10078520Y-13713020D01*
X10218520Y-13643020D02*
G75*
G03*
X10078520Y-13643020I-70000J0D01*
G01*
X10078520Y-13643020D02*
G75*
G03*
X10218520Y-13643020I70000J0D01*
G01*
X10898940Y-13570480D02*
X11038940Y-13710480D01*
X11038940Y-13570480D02*
X10898940Y-13710480D01*
X11038940Y-13640480D02*
G75*
G03*
X10898940Y-13640480I-70000J0D01*
G01*
X10898940Y-13640480D02*
G75*
G03*
X11038940Y-13640480I70000J0D01*
G01*
D10*
X260777Y-311484D02*
X260777Y-111484D01*
X260777Y-111484D02*
X308396Y-111484D01*
X308396Y-111484D02*
X336967Y-121008D01*
X336967Y-121008D02*
X356015Y-140055D01*
X356015Y-140055D02*
X365539Y-159103D01*
X365539Y-159103D02*
X375062Y-197198D01*
X375062Y-197198D02*
X375062Y-225769D01*
X375062Y-225769D02*
X365539Y-263865D01*
X365539Y-263865D02*
X356015Y-282912D01*
X356015Y-282912D02*
X336967Y-301960D01*
X336967Y-301960D02*
X308396Y-311484D01*
X308396Y-311484D02*
X260777Y-311484D01*
X460777Y-311484D02*
X460777Y-178150D01*
X460777Y-216246D02*
X470301Y-197198D01*
X470301Y-197198D02*
X479824Y-187674D01*
X479824Y-187674D02*
X498872Y-178150D01*
X498872Y-178150D02*
X517920Y-178150D01*
X584586Y-311484D02*
X584586Y-178150D01*
X584586Y-111484D02*
X575063Y-121008D01*
X575063Y-121008D02*
X584586Y-130531D01*
X584586Y-130531D02*
X594110Y-121008D01*
X594110Y-121008D02*
X584586Y-111484D01*
X584586Y-111484D02*
X584586Y-130531D01*
X708396Y-311484D02*
X689348Y-301960D01*
X689348Y-301960D02*
X679824Y-282912D01*
X679824Y-282912D02*
X679824Y-111484D01*
X813158Y-311484D02*
X794110Y-301960D01*
X794110Y-301960D02*
X784586Y-282912D01*
X784586Y-282912D02*
X784586Y-111484D01*
X1041729Y-311484D02*
X1041729Y-111484D01*
X1041729Y-111484D02*
X1108396Y-254341D01*
X1108396Y-254341D02*
X1175063Y-111484D01*
X1175063Y-111484D02*
X1175063Y-311484D01*
X1356015Y-311484D02*
X1356015Y-206722D01*
X1356015Y-206722D02*
X1346491Y-187674D01*
X1346491Y-187674D02*
X1327444Y-178150D01*
X1327444Y-178150D02*
X1289348Y-178150D01*
X1289348Y-178150D02*
X1270301Y-187674D01*
X1356015Y-301960D02*
X1336967Y-311484D01*
X1336967Y-311484D02*
X1289348Y-311484D01*
X1289348Y-311484D02*
X1270301Y-301960D01*
X1270301Y-301960D02*
X1260777Y-282912D01*
X1260777Y-282912D02*
X1260777Y-263865D01*
X1260777Y-263865D02*
X1270301Y-244817D01*
X1270301Y-244817D02*
X1289348Y-235293D01*
X1289348Y-235293D02*
X1336967Y-235293D01*
X1336967Y-235293D02*
X1356015Y-225769D01*
X1451253Y-178150D02*
X1451253Y-378150D01*
X1451253Y-187674D02*
X1470301Y-178150D01*
X1470301Y-178150D02*
X1508396Y-178150D01*
X1508396Y-178150D02*
X1527443Y-187674D01*
X1527443Y-187674D02*
X1536967Y-197198D01*
X1536967Y-197198D02*
X1546491Y-216246D01*
X1546491Y-216246D02*
X1546491Y-273389D01*
X1546491Y-273389D02*
X1536967Y-292436D01*
X1536967Y-292436D02*
X1527443Y-301960D01*
X1527443Y-301960D02*
X1508396Y-311484D01*
X1508396Y-311484D02*
X1470301Y-311484D01*
X1470301Y-311484D02*
X1451253Y-301960D01*
X1632205Y-292436D02*
X1641729Y-301960D01*
X1641729Y-301960D02*
X1632205Y-311484D01*
X1632205Y-311484D02*
X1622682Y-301960D01*
X1622682Y-301960D02*
X1632205Y-292436D01*
X1632205Y-292436D02*
X1632205Y-311484D01*
X1632205Y-187674D02*
X1641729Y-197198D01*
X1641729Y-197198D02*
X1632205Y-206722D01*
X1632205Y-206722D02*
X1622682Y-197198D01*
X1622682Y-197198D02*
X1632205Y-187674D01*
X1632205Y-187674D02*
X1632205Y-206722D01*
D11*
X-40000Y-620000D02*
X0Y-660000D01*
X0Y-620000D02*
X-40000Y-660000D01*
D10*
X298872Y-531484D02*
X317920Y-531484D01*
X317920Y-531484D02*
X336967Y-541008D01*
X336967Y-541008D02*
X346491Y-550531D01*
X346491Y-550531D02*
X356015Y-569579D01*
X356015Y-569579D02*
X365539Y-607674D01*
X365539Y-607674D02*
X365539Y-655293D01*
X365539Y-655293D02*
X356015Y-693389D01*
X356015Y-693389D02*
X346491Y-712436D01*
X346491Y-712436D02*
X336967Y-721960D01*
X336967Y-721960D02*
X317920Y-731484D01*
X317920Y-731484D02*
X298872Y-731484D01*
X298872Y-731484D02*
X279824Y-721960D01*
X279824Y-721960D02*
X270301Y-712436D01*
X270301Y-712436D02*
X260777Y-693389D01*
X260777Y-693389D02*
X251253Y-655293D01*
X251253Y-655293D02*
X251253Y-607674D01*
X251253Y-607674D02*
X260777Y-569579D01*
X260777Y-569579D02*
X270301Y-550531D01*
X270301Y-550531D02*
X279824Y-541008D01*
X279824Y-541008D02*
X298872Y-531484D01*
X451253Y-712436D02*
X460777Y-721960D01*
X460777Y-721960D02*
X451253Y-731484D01*
X451253Y-731484D02*
X441729Y-721960D01*
X441729Y-721960D02*
X451253Y-712436D01*
X451253Y-712436D02*
X451253Y-731484D01*
X632205Y-598150D02*
X632205Y-731484D01*
X584586Y-521960D02*
X536967Y-664817D01*
X536967Y-664817D02*
X660777Y-664817D01*
X775062Y-531484D02*
X794110Y-531484D01*
X794110Y-531484D02*
X813158Y-541008D01*
X813158Y-541008D02*
X822682Y-550531D01*
X822682Y-550531D02*
X832205Y-569579D01*
X832205Y-569579D02*
X841729Y-607674D01*
X841729Y-607674D02*
X841729Y-655293D01*
X841729Y-655293D02*
X832205Y-693389D01*
X832205Y-693389D02*
X822682Y-712436D01*
X822682Y-712436D02*
X813158Y-721960D01*
X813158Y-721960D02*
X794110Y-731484D01*
X794110Y-731484D02*
X775062Y-731484D01*
X775062Y-731484D02*
X756015Y-721960D01*
X756015Y-721960D02*
X746491Y-712436D01*
X746491Y-712436D02*
X736967Y-693389D01*
X736967Y-693389D02*
X727443Y-655293D01*
X727443Y-655293D02*
X727443Y-607674D01*
X727443Y-607674D02*
X736967Y-569579D01*
X736967Y-569579D02*
X746491Y-550531D01*
X746491Y-550531D02*
X756015Y-541008D01*
X756015Y-541008D02*
X775062Y-531484D01*
X965539Y-531484D02*
X984586Y-531484D01*
X984586Y-531484D02*
X1003634Y-541008D01*
X1003634Y-541008D02*
X1013158Y-550531D01*
X1013158Y-550531D02*
X1022682Y-569579D01*
X1022682Y-569579D02*
X1032205Y-607674D01*
X1032205Y-607674D02*
X1032205Y-655293D01*
X1032205Y-655293D02*
X1022682Y-693389D01*
X1022682Y-693389D02*
X1013158Y-712436D01*
X1013158Y-712436D02*
X1003634Y-721960D01*
X1003634Y-721960D02*
X984586Y-731484D01*
X984586Y-731484D02*
X965539Y-731484D01*
X965539Y-731484D02*
X946491Y-721960D01*
X946491Y-721960D02*
X936967Y-712436D01*
X936967Y-712436D02*
X927443Y-693389D01*
X927443Y-693389D02*
X917920Y-655293D01*
X917920Y-655293D02*
X917920Y-607674D01*
X917920Y-607674D02*
X927443Y-569579D01*
X927443Y-569579D02*
X936967Y-550531D01*
X936967Y-550531D02*
X946491Y-541008D01*
X946491Y-541008D02*
X965539Y-531484D01*
X1117920Y-731484D02*
X1117920Y-598150D01*
X1117920Y-617198D02*
X1127444Y-607674D01*
X1127444Y-607674D02*
X1146491Y-598150D01*
X1146491Y-598150D02*
X1175063Y-598150D01*
X1175063Y-598150D02*
X1194110Y-607674D01*
X1194110Y-607674D02*
X1203634Y-626722D01*
X1203634Y-626722D02*
X1203634Y-731484D01*
X1203634Y-626722D02*
X1213158Y-607674D01*
X1213158Y-607674D02*
X1232205Y-598150D01*
X1232205Y-598150D02*
X1260777Y-598150D01*
X1260777Y-598150D02*
X1279825Y-607674D01*
X1279825Y-607674D02*
X1289348Y-626722D01*
X1289348Y-626722D02*
X1289348Y-731484D01*
X1384586Y-731484D02*
X1384586Y-598150D01*
X1384586Y-617198D02*
X1394110Y-607674D01*
X1394110Y-607674D02*
X1413158Y-598150D01*
X1413158Y-598150D02*
X1441729Y-598150D01*
X1441729Y-598150D02*
X1460777Y-607674D01*
X1460777Y-607674D02*
X1470301Y-626722D01*
X1470301Y-626722D02*
X1470301Y-731484D01*
X1470301Y-626722D02*
X1479824Y-607674D01*
X1479824Y-607674D02*
X1498872Y-598150D01*
X1498872Y-598150D02*
X1527443Y-598150D01*
X1527443Y-598150D02*
X1546491Y-607674D01*
X1546491Y-607674D02*
X1556015Y-626722D01*
X1556015Y-626722D02*
X1556015Y-731484D01*
X1946491Y-521960D02*
X1775063Y-779103D01*
X2203634Y-531484D02*
X2222682Y-531484D01*
X2222682Y-531484D02*
X2241729Y-541008D01*
X2241729Y-541008D02*
X2251253Y-550531D01*
X2251253Y-550531D02*
X2260777Y-569579D01*
X2260777Y-569579D02*
X2270301Y-607674D01*
X2270301Y-607674D02*
X2270301Y-655293D01*
X2270301Y-655293D02*
X2260777Y-693389D01*
X2260777Y-693389D02*
X2251253Y-712436D01*
X2251253Y-712436D02*
X2241729Y-721960D01*
X2241729Y-721960D02*
X2222682Y-731484D01*
X2222682Y-731484D02*
X2203634Y-731484D01*
X2203634Y-731484D02*
X2184587Y-721960D01*
X2184587Y-721960D02*
X2175063Y-712436D01*
X2175063Y-712436D02*
X2165539Y-693389D01*
X2165539Y-693389D02*
X2156015Y-655293D01*
X2156015Y-655293D02*
X2156015Y-607674D01*
X2156015Y-607674D02*
X2165539Y-569579D01*
X2165539Y-569579D02*
X2175063Y-550531D01*
X2175063Y-550531D02*
X2184587Y-541008D01*
X2184587Y-541008D02*
X2203634Y-531484D01*
X2356015Y-712436D02*
X2365539Y-721960D01*
X2365539Y-721960D02*
X2356015Y-731484D01*
X2356015Y-731484D02*
X2346491Y-721960D01*
X2346491Y-721960D02*
X2356015Y-712436D01*
X2356015Y-712436D02*
X2356015Y-731484D01*
X2489348Y-531484D02*
X2508396Y-531484D01*
X2508396Y-531484D02*
X2527444Y-541008D01*
X2527444Y-541008D02*
X2536968Y-550531D01*
X2536968Y-550531D02*
X2546491Y-569579D01*
X2546491Y-569579D02*
X2556015Y-607674D01*
X2556015Y-607674D02*
X2556015Y-655293D01*
X2556015Y-655293D02*
X2546491Y-693389D01*
X2546491Y-693389D02*
X2536968Y-712436D01*
X2536968Y-712436D02*
X2527444Y-721960D01*
X2527444Y-721960D02*
X2508396Y-731484D01*
X2508396Y-731484D02*
X2489348Y-731484D01*
X2489348Y-731484D02*
X2470301Y-721960D01*
X2470301Y-721960D02*
X2460777Y-712436D01*
X2460777Y-712436D02*
X2451253Y-693389D01*
X2451253Y-693389D02*
X2441729Y-655293D01*
X2441729Y-655293D02*
X2441729Y-607674D01*
X2441729Y-607674D02*
X2451253Y-569579D01*
X2451253Y-569579D02*
X2460777Y-550531D01*
X2460777Y-550531D02*
X2470301Y-541008D01*
X2470301Y-541008D02*
X2489348Y-531484D01*
X2746491Y-731484D02*
X2632206Y-731484D01*
X2689348Y-731484D02*
X2689348Y-531484D01*
X2689348Y-531484D02*
X2670301Y-560055D01*
X2670301Y-560055D02*
X2651253Y-579103D01*
X2651253Y-579103D02*
X2632206Y-588627D01*
X2927444Y-531484D02*
X2832206Y-531484D01*
X2832206Y-531484D02*
X2822682Y-626722D01*
X2822682Y-626722D02*
X2832206Y-617198D01*
X2832206Y-617198D02*
X2851253Y-607674D01*
X2851253Y-607674D02*
X2898872Y-607674D01*
X2898872Y-607674D02*
X2917920Y-617198D01*
X2917920Y-617198D02*
X2927444Y-626722D01*
X2927444Y-626722D02*
X2936967Y-645770D01*
X2936967Y-645770D02*
X2936967Y-693389D01*
X2936967Y-693389D02*
X2927444Y-712436D01*
X2927444Y-712436D02*
X2917920Y-721960D01*
X2917920Y-721960D02*
X2898872Y-731484D01*
X2898872Y-731484D02*
X2851253Y-731484D01*
X2851253Y-731484D02*
X2832206Y-721960D01*
X2832206Y-721960D02*
X2822682Y-712436D01*
X3003634Y-531484D02*
X3136967Y-531484D01*
X3136967Y-531484D02*
X3051253Y-731484D01*
X3203634Y-531484D02*
X3203634Y-569579D01*
X3279825Y-531484D02*
X3279825Y-569579D01*
X3575063Y-807674D02*
X3565539Y-798150D01*
X3565539Y-798150D02*
X3546491Y-769579D01*
X3546491Y-769579D02*
X3536968Y-750531D01*
X3536968Y-750531D02*
X3527444Y-721960D01*
X3527444Y-721960D02*
X3517920Y-674341D01*
X3517920Y-674341D02*
X3517920Y-636246D01*
X3517920Y-636246D02*
X3527444Y-588627D01*
X3527444Y-588627D02*
X3536968Y-560055D01*
X3536968Y-560055D02*
X3546491Y-541008D01*
X3546491Y-541008D02*
X3565539Y-512436D01*
X3565539Y-512436D02*
X3575063Y-502912D01*
X3641729Y-550531D02*
X3651253Y-541008D01*
X3651253Y-541008D02*
X3670301Y-531484D01*
X3670301Y-531484D02*
X3717920Y-531484D01*
X3717920Y-531484D02*
X3736968Y-541008D01*
X3736968Y-541008D02*
X3746491Y-550531D01*
X3746491Y-550531D02*
X3756015Y-569579D01*
X3756015Y-569579D02*
X3756015Y-588627D01*
X3756015Y-588627D02*
X3746491Y-617198D01*
X3746491Y-617198D02*
X3632206Y-731484D01*
X3632206Y-731484D02*
X3756015Y-731484D01*
X3936968Y-531484D02*
X3841729Y-531484D01*
X3841729Y-531484D02*
X3832206Y-626722D01*
X3832206Y-626722D02*
X3841729Y-617198D01*
X3841729Y-617198D02*
X3860777Y-607674D01*
X3860777Y-607674D02*
X3908396Y-607674D01*
X3908396Y-607674D02*
X3927444Y-617198D01*
X3927444Y-617198D02*
X3936968Y-626722D01*
X3936968Y-626722D02*
X3946491Y-645770D01*
X3946491Y-645770D02*
X3946491Y-693389D01*
X3946491Y-693389D02*
X3936968Y-712436D01*
X3936968Y-712436D02*
X3927444Y-721960D01*
X3927444Y-721960D02*
X3908396Y-731484D01*
X3908396Y-731484D02*
X3860777Y-731484D01*
X3860777Y-731484D02*
X3841729Y-721960D01*
X3841729Y-721960D02*
X3832206Y-712436D01*
X4184587Y-731484D02*
X4184587Y-531484D01*
X4270301Y-731484D02*
X4270301Y-626722D01*
X4270301Y-626722D02*
X4260777Y-607674D01*
X4260777Y-607674D02*
X4241730Y-598150D01*
X4241730Y-598150D02*
X4213158Y-598150D01*
X4213158Y-598150D02*
X4194110Y-607674D01*
X4194110Y-607674D02*
X4184587Y-617198D01*
X4394111Y-731484D02*
X4375063Y-721960D01*
X4375063Y-721960D02*
X4365539Y-712436D01*
X4365539Y-712436D02*
X4356015Y-693389D01*
X4356015Y-693389D02*
X4356015Y-636246D01*
X4356015Y-636246D02*
X4365539Y-617198D01*
X4365539Y-617198D02*
X4375063Y-607674D01*
X4375063Y-607674D02*
X4394111Y-598150D01*
X4394111Y-598150D02*
X4422682Y-598150D01*
X4422682Y-598150D02*
X4441730Y-607674D01*
X4441730Y-607674D02*
X4451253Y-617198D01*
X4451253Y-617198D02*
X4460777Y-636246D01*
X4460777Y-636246D02*
X4460777Y-693389D01*
X4460777Y-693389D02*
X4451253Y-712436D01*
X4451253Y-712436D02*
X4441730Y-721960D01*
X4441730Y-721960D02*
X4422682Y-731484D01*
X4422682Y-731484D02*
X4394111Y-731484D01*
X4575063Y-731484D02*
X4556015Y-721960D01*
X4556015Y-721960D02*
X4546492Y-702912D01*
X4546492Y-702912D02*
X4546492Y-531484D01*
X4727444Y-721960D02*
X4708396Y-731484D01*
X4708396Y-731484D02*
X4670301Y-731484D01*
X4670301Y-731484D02*
X4651253Y-721960D01*
X4651253Y-721960D02*
X4641730Y-702912D01*
X4641730Y-702912D02*
X4641730Y-626722D01*
X4641730Y-626722D02*
X4651253Y-607674D01*
X4651253Y-607674D02*
X4670301Y-598150D01*
X4670301Y-598150D02*
X4708396Y-598150D01*
X4708396Y-598150D02*
X4727444Y-607674D01*
X4727444Y-607674D02*
X4736968Y-626722D01*
X4736968Y-626722D02*
X4736968Y-645770D01*
X4736968Y-645770D02*
X4641730Y-664817D01*
X4813158Y-721960D02*
X4832206Y-731484D01*
X4832206Y-731484D02*
X4870301Y-731484D01*
X4870301Y-731484D02*
X4889349Y-721960D01*
X4889349Y-721960D02*
X4898873Y-702912D01*
X4898873Y-702912D02*
X4898873Y-693389D01*
X4898873Y-693389D02*
X4889349Y-674341D01*
X4889349Y-674341D02*
X4870301Y-664817D01*
X4870301Y-664817D02*
X4841730Y-664817D01*
X4841730Y-664817D02*
X4822682Y-655293D01*
X4822682Y-655293D02*
X4813158Y-636246D01*
X4813158Y-636246D02*
X4813158Y-626722D01*
X4813158Y-626722D02*
X4822682Y-607674D01*
X4822682Y-607674D02*
X4841730Y-598150D01*
X4841730Y-598150D02*
X4870301Y-598150D01*
X4870301Y-598150D02*
X4889349Y-607674D01*
X4965539Y-807674D02*
X4975063Y-798150D01*
X4975063Y-798150D02*
X4994111Y-769579D01*
X4994111Y-769579D02*
X5003634Y-750531D01*
X5003634Y-750531D02*
X5013158Y-721960D01*
X5013158Y-721960D02*
X5022682Y-674341D01*
X5022682Y-674341D02*
X5022682Y-636246D01*
X5022682Y-636246D02*
X5013158Y-588627D01*
X5013158Y-588627D02*
X5003634Y-560055D01*
X5003634Y-560055D02*
X4994111Y-541008D01*
X4994111Y-541008D02*
X4975063Y-512436D01*
X4975063Y-512436D02*
X4965539Y-502912D01*
D11*
X0Y-904000D02*
G75*
G03*
X-80000Y-904000I-40000J0D01*
G01*
X-80000Y-904000D02*
G75*
G03*
X0Y-904000I40000J0D01*
G01*
D10*
X298872Y-795484D02*
X317920Y-795484D01*
X317920Y-795484D02*
X336967Y-805008D01*
X336967Y-805008D02*
X346491Y-814531D01*
X346491Y-814531D02*
X356015Y-833579D01*
X356015Y-833579D02*
X365539Y-871674D01*
X365539Y-871674D02*
X365539Y-919293D01*
X365539Y-919293D02*
X356015Y-957388D01*
X356015Y-957388D02*
X346491Y-976436D01*
X346491Y-976436D02*
X336967Y-985960D01*
X336967Y-985960D02*
X317920Y-995484D01*
X317920Y-995484D02*
X298872Y-995484D01*
X298872Y-995484D02*
X279824Y-985960D01*
X279824Y-985960D02*
X270301Y-976436D01*
X270301Y-976436D02*
X260777Y-957388D01*
X260777Y-957388D02*
X251253Y-919293D01*
X251253Y-919293D02*
X251253Y-871674D01*
X251253Y-871674D02*
X260777Y-833579D01*
X260777Y-833579D02*
X270301Y-814531D01*
X270301Y-814531D02*
X279824Y-805008D01*
X279824Y-805008D02*
X298872Y-795484D01*
X451253Y-976436D02*
X460777Y-985960D01*
X460777Y-985960D02*
X451253Y-995484D01*
X451253Y-995484D02*
X441729Y-985960D01*
X441729Y-985960D02*
X451253Y-976436D01*
X451253Y-976436D02*
X451253Y-995484D01*
X575063Y-881198D02*
X556015Y-871674D01*
X556015Y-871674D02*
X546491Y-862150D01*
X546491Y-862150D02*
X536967Y-843103D01*
X536967Y-843103D02*
X536967Y-833579D01*
X536967Y-833579D02*
X546491Y-814531D01*
X546491Y-814531D02*
X556015Y-805008D01*
X556015Y-805008D02*
X575063Y-795484D01*
X575063Y-795484D02*
X613158Y-795484D01*
X613158Y-795484D02*
X632205Y-805008D01*
X632205Y-805008D02*
X641729Y-814531D01*
X641729Y-814531D02*
X651253Y-833579D01*
X651253Y-833579D02*
X651253Y-843103D01*
X651253Y-843103D02*
X641729Y-862150D01*
X641729Y-862150D02*
X632205Y-871674D01*
X632205Y-871674D02*
X613158Y-881198D01*
X613158Y-881198D02*
X575063Y-881198D01*
X575063Y-881198D02*
X556015Y-890722D01*
X556015Y-890722D02*
X546491Y-900246D01*
X546491Y-900246D02*
X536967Y-919293D01*
X536967Y-919293D02*
X536967Y-957388D01*
X536967Y-957388D02*
X546491Y-976436D01*
X546491Y-976436D02*
X556015Y-985960D01*
X556015Y-985960D02*
X575063Y-995484D01*
X575063Y-995484D02*
X613158Y-995484D01*
X613158Y-995484D02*
X632205Y-985960D01*
X632205Y-985960D02*
X641729Y-976436D01*
X641729Y-976436D02*
X651253Y-957388D01*
X651253Y-957388D02*
X651253Y-919293D01*
X651253Y-919293D02*
X641729Y-900246D01*
X641729Y-900246D02*
X632205Y-890722D01*
X632205Y-890722D02*
X613158Y-881198D01*
X775062Y-795484D02*
X794110Y-795484D01*
X794110Y-795484D02*
X813158Y-805008D01*
X813158Y-805008D02*
X822682Y-814531D01*
X822682Y-814531D02*
X832205Y-833579D01*
X832205Y-833579D02*
X841729Y-871674D01*
X841729Y-871674D02*
X841729Y-919293D01*
X841729Y-919293D02*
X832205Y-957388D01*
X832205Y-957388D02*
X822682Y-976436D01*
X822682Y-976436D02*
X813158Y-985960D01*
X813158Y-985960D02*
X794110Y-995484D01*
X794110Y-995484D02*
X775062Y-995484D01*
X775062Y-995484D02*
X756015Y-985960D01*
X756015Y-985960D02*
X746491Y-976436D01*
X746491Y-976436D02*
X736967Y-957388D01*
X736967Y-957388D02*
X727443Y-919293D01*
X727443Y-919293D02*
X727443Y-871674D01*
X727443Y-871674D02*
X736967Y-833579D01*
X736967Y-833579D02*
X746491Y-814531D01*
X746491Y-814531D02*
X756015Y-805008D01*
X756015Y-805008D02*
X775062Y-795484D01*
X965539Y-795484D02*
X984586Y-795484D01*
X984586Y-795484D02*
X1003634Y-805008D01*
X1003634Y-805008D02*
X1013158Y-814531D01*
X1013158Y-814531D02*
X1022682Y-833579D01*
X1022682Y-833579D02*
X1032205Y-871674D01*
X1032205Y-871674D02*
X1032205Y-919293D01*
X1032205Y-919293D02*
X1022682Y-957388D01*
X1022682Y-957388D02*
X1013158Y-976436D01*
X1013158Y-976436D02*
X1003634Y-985960D01*
X1003634Y-985960D02*
X984586Y-995484D01*
X984586Y-995484D02*
X965539Y-995484D01*
X965539Y-995484D02*
X946491Y-985960D01*
X946491Y-985960D02*
X936967Y-976436D01*
X936967Y-976436D02*
X927443Y-957388D01*
X927443Y-957388D02*
X917920Y-919293D01*
X917920Y-919293D02*
X917920Y-871674D01*
X917920Y-871674D02*
X927443Y-833579D01*
X927443Y-833579D02*
X936967Y-814531D01*
X936967Y-814531D02*
X946491Y-805008D01*
X946491Y-805008D02*
X965539Y-795484D01*
X1117920Y-995484D02*
X1117920Y-862150D01*
X1117920Y-881198D02*
X1127444Y-871674D01*
X1127444Y-871674D02*
X1146491Y-862150D01*
X1146491Y-862150D02*
X1175063Y-862150D01*
X1175063Y-862150D02*
X1194110Y-871674D01*
X1194110Y-871674D02*
X1203634Y-890722D01*
X1203634Y-890722D02*
X1203634Y-995484D01*
X1203634Y-890722D02*
X1213158Y-871674D01*
X1213158Y-871674D02*
X1232205Y-862150D01*
X1232205Y-862150D02*
X1260777Y-862150D01*
X1260777Y-862150D02*
X1279825Y-871674D01*
X1279825Y-871674D02*
X1289348Y-890722D01*
X1289348Y-890722D02*
X1289348Y-995484D01*
X1384586Y-995484D02*
X1384586Y-862150D01*
X1384586Y-881198D02*
X1394110Y-871674D01*
X1394110Y-871674D02*
X1413158Y-862150D01*
X1413158Y-862150D02*
X1441729Y-862150D01*
X1441729Y-862150D02*
X1460777Y-871674D01*
X1460777Y-871674D02*
X1470301Y-890722D01*
X1470301Y-890722D02*
X1470301Y-995484D01*
X1470301Y-890722D02*
X1479824Y-871674D01*
X1479824Y-871674D02*
X1498872Y-862150D01*
X1498872Y-862150D02*
X1527443Y-862150D01*
X1527443Y-862150D02*
X1546491Y-871674D01*
X1546491Y-871674D02*
X1556015Y-890722D01*
X1556015Y-890722D02*
X1556015Y-995484D01*
X1946491Y-785960D02*
X1775063Y-1043103D01*
X2203634Y-795484D02*
X2222682Y-795484D01*
X2222682Y-795484D02*
X2241729Y-805008D01*
X2241729Y-805008D02*
X2251253Y-814531D01*
X2251253Y-814531D02*
X2260777Y-833579D01*
X2260777Y-833579D02*
X2270301Y-871674D01*
X2270301Y-871674D02*
X2270301Y-919293D01*
X2270301Y-919293D02*
X2260777Y-957388D01*
X2260777Y-957388D02*
X2251253Y-976436D01*
X2251253Y-976436D02*
X2241729Y-985960D01*
X2241729Y-985960D02*
X2222682Y-995484D01*
X2222682Y-995484D02*
X2203634Y-995484D01*
X2203634Y-995484D02*
X2184587Y-985960D01*
X2184587Y-985960D02*
X2175063Y-976436D01*
X2175063Y-976436D02*
X2165539Y-957388D01*
X2165539Y-957388D02*
X2156015Y-919293D01*
X2156015Y-919293D02*
X2156015Y-871674D01*
X2156015Y-871674D02*
X2165539Y-833579D01*
X2165539Y-833579D02*
X2175063Y-814531D01*
X2175063Y-814531D02*
X2184587Y-805008D01*
X2184587Y-805008D02*
X2203634Y-795484D01*
X2356015Y-976436D02*
X2365539Y-985960D01*
X2365539Y-985960D02*
X2356015Y-995484D01*
X2356015Y-995484D02*
X2346491Y-985960D01*
X2346491Y-985960D02*
X2356015Y-976436D01*
X2356015Y-976436D02*
X2356015Y-995484D01*
X2489348Y-795484D02*
X2508396Y-795484D01*
X2508396Y-795484D02*
X2527444Y-805008D01*
X2527444Y-805008D02*
X2536968Y-814531D01*
X2536968Y-814531D02*
X2546491Y-833579D01*
X2546491Y-833579D02*
X2556015Y-871674D01*
X2556015Y-871674D02*
X2556015Y-919293D01*
X2556015Y-919293D02*
X2546491Y-957388D01*
X2546491Y-957388D02*
X2536968Y-976436D01*
X2536968Y-976436D02*
X2527444Y-985960D01*
X2527444Y-985960D02*
X2508396Y-995484D01*
X2508396Y-995484D02*
X2489348Y-995484D01*
X2489348Y-995484D02*
X2470301Y-985960D01*
X2470301Y-985960D02*
X2460777Y-976436D01*
X2460777Y-976436D02*
X2451253Y-957388D01*
X2451253Y-957388D02*
X2441729Y-919293D01*
X2441729Y-919293D02*
X2441729Y-871674D01*
X2441729Y-871674D02*
X2451253Y-833579D01*
X2451253Y-833579D02*
X2460777Y-814531D01*
X2460777Y-814531D02*
X2470301Y-805008D01*
X2470301Y-805008D02*
X2489348Y-795484D01*
X2622682Y-795484D02*
X2746491Y-795484D01*
X2746491Y-795484D02*
X2679825Y-871674D01*
X2679825Y-871674D02*
X2708396Y-871674D01*
X2708396Y-871674D02*
X2727444Y-881198D01*
X2727444Y-881198D02*
X2736968Y-890722D01*
X2736968Y-890722D02*
X2746491Y-909769D01*
X2746491Y-909769D02*
X2746491Y-957388D01*
X2746491Y-957388D02*
X2736968Y-976436D01*
X2736968Y-976436D02*
X2727444Y-985960D01*
X2727444Y-985960D02*
X2708396Y-995484D01*
X2708396Y-995484D02*
X2651253Y-995484D01*
X2651253Y-995484D02*
X2632206Y-985960D01*
X2632206Y-985960D02*
X2622682Y-976436D01*
X2936967Y-995484D02*
X2822682Y-995484D01*
X2879825Y-995484D02*
X2879825Y-795484D01*
X2879825Y-795484D02*
X2860777Y-824055D01*
X2860777Y-824055D02*
X2841729Y-843103D01*
X2841729Y-843103D02*
X2822682Y-852627D01*
X3117920Y-795484D02*
X3022682Y-795484D01*
X3022682Y-795484D02*
X3013158Y-890722D01*
X3013158Y-890722D02*
X3022682Y-881198D01*
X3022682Y-881198D02*
X3041729Y-871674D01*
X3041729Y-871674D02*
X3089348Y-871674D01*
X3089348Y-871674D02*
X3108396Y-881198D01*
X3108396Y-881198D02*
X3117920Y-890722D01*
X3117920Y-890722D02*
X3127444Y-909769D01*
X3127444Y-909769D02*
X3127444Y-957388D01*
X3127444Y-957388D02*
X3117920Y-976436D01*
X3117920Y-976436D02*
X3108396Y-985960D01*
X3108396Y-985960D02*
X3089348Y-995484D01*
X3089348Y-995484D02*
X3041729Y-995484D01*
X3041729Y-995484D02*
X3022682Y-985960D01*
X3022682Y-985960D02*
X3013158Y-976436D01*
X3203634Y-795484D02*
X3203634Y-833579D01*
X3279825Y-795484D02*
X3279825Y-833579D01*
X3575063Y-1071674D02*
X3565539Y-1062150D01*
X3565539Y-1062150D02*
X3546491Y-1033579D01*
X3546491Y-1033579D02*
X3536968Y-1014531D01*
X3536968Y-1014531D02*
X3527444Y-985960D01*
X3527444Y-985960D02*
X3517920Y-938341D01*
X3517920Y-938341D02*
X3517920Y-900246D01*
X3517920Y-900246D02*
X3527444Y-852627D01*
X3527444Y-852627D02*
X3536968Y-824055D01*
X3536968Y-824055D02*
X3546491Y-805008D01*
X3546491Y-805008D02*
X3565539Y-776436D01*
X3565539Y-776436D02*
X3575063Y-766912D01*
X3679825Y-881198D02*
X3660777Y-871674D01*
X3660777Y-871674D02*
X3651253Y-862150D01*
X3651253Y-862150D02*
X3641729Y-843103D01*
X3641729Y-843103D02*
X3641729Y-833579D01*
X3641729Y-833579D02*
X3651253Y-814531D01*
X3651253Y-814531D02*
X3660777Y-805008D01*
X3660777Y-805008D02*
X3679825Y-795484D01*
X3679825Y-795484D02*
X3717920Y-795484D01*
X3717920Y-795484D02*
X3736968Y-805008D01*
X3736968Y-805008D02*
X3746491Y-814531D01*
X3746491Y-814531D02*
X3756015Y-833579D01*
X3756015Y-833579D02*
X3756015Y-843103D01*
X3756015Y-843103D02*
X3746491Y-862150D01*
X3746491Y-862150D02*
X3736968Y-871674D01*
X3736968Y-871674D02*
X3717920Y-881198D01*
X3717920Y-881198D02*
X3679825Y-881198D01*
X3679825Y-881198D02*
X3660777Y-890722D01*
X3660777Y-890722D02*
X3651253Y-900246D01*
X3651253Y-900246D02*
X3641729Y-919293D01*
X3641729Y-919293D02*
X3641729Y-957388D01*
X3641729Y-957388D02*
X3651253Y-976436D01*
X3651253Y-976436D02*
X3660777Y-985960D01*
X3660777Y-985960D02*
X3679825Y-995484D01*
X3679825Y-995484D02*
X3717920Y-995484D01*
X3717920Y-995484D02*
X3736968Y-985960D01*
X3736968Y-985960D02*
X3746491Y-976436D01*
X3746491Y-976436D02*
X3756015Y-957388D01*
X3756015Y-957388D02*
X3756015Y-919293D01*
X3756015Y-919293D02*
X3746491Y-900246D01*
X3746491Y-900246D02*
X3736968Y-890722D01*
X3736968Y-890722D02*
X3717920Y-881198D01*
X3994110Y-995484D02*
X3994110Y-795484D01*
X4079825Y-995484D02*
X4079825Y-890722D01*
X4079825Y-890722D02*
X4070301Y-871674D01*
X4070301Y-871674D02*
X4051253Y-862150D01*
X4051253Y-862150D02*
X4022682Y-862150D01*
X4022682Y-862150D02*
X4003634Y-871674D01*
X4003634Y-871674D02*
X3994110Y-881198D01*
X4203634Y-995484D02*
X4184587Y-985960D01*
X4184587Y-985960D02*
X4175063Y-976436D01*
X4175063Y-976436D02*
X4165539Y-957388D01*
X4165539Y-957388D02*
X4165539Y-900246D01*
X4165539Y-900246D02*
X4175063Y-881198D01*
X4175063Y-881198D02*
X4184587Y-871674D01*
X4184587Y-871674D02*
X4203634Y-862150D01*
X4203634Y-862150D02*
X4232206Y-862150D01*
X4232206Y-862150D02*
X4251253Y-871674D01*
X4251253Y-871674D02*
X4260777Y-881198D01*
X4260777Y-881198D02*
X4270301Y-900246D01*
X4270301Y-900246D02*
X4270301Y-957388D01*
X4270301Y-957388D02*
X4260777Y-976436D01*
X4260777Y-976436D02*
X4251253Y-985960D01*
X4251253Y-985960D02*
X4232206Y-995484D01*
X4232206Y-995484D02*
X4203634Y-995484D01*
X4384587Y-995484D02*
X4365539Y-985960D01*
X4365539Y-985960D02*
X4356015Y-966912D01*
X4356015Y-966912D02*
X4356015Y-795484D01*
X4536968Y-985960D02*
X4517920Y-995484D01*
X4517920Y-995484D02*
X4479825Y-995484D01*
X4479825Y-995484D02*
X4460777Y-985960D01*
X4460777Y-985960D02*
X4451253Y-966912D01*
X4451253Y-966912D02*
X4451253Y-890722D01*
X4451253Y-890722D02*
X4460777Y-871674D01*
X4460777Y-871674D02*
X4479825Y-862150D01*
X4479825Y-862150D02*
X4517920Y-862150D01*
X4517920Y-862150D02*
X4536968Y-871674D01*
X4536968Y-871674D02*
X4546492Y-890722D01*
X4546492Y-890722D02*
X4546492Y-909769D01*
X4546492Y-909769D02*
X4451253Y-928817D01*
X4622682Y-985960D02*
X4641730Y-995484D01*
X4641730Y-995484D02*
X4679825Y-995484D01*
X4679825Y-995484D02*
X4698873Y-985960D01*
X4698873Y-985960D02*
X4708396Y-966912D01*
X4708396Y-966912D02*
X4708396Y-957388D01*
X4708396Y-957388D02*
X4698873Y-938341D01*
X4698873Y-938341D02*
X4679825Y-928817D01*
X4679825Y-928817D02*
X4651253Y-928817D01*
X4651253Y-928817D02*
X4632206Y-919293D01*
X4632206Y-919293D02*
X4622682Y-900246D01*
X4622682Y-900246D02*
X4622682Y-890722D01*
X4622682Y-890722D02*
X4632206Y-871674D01*
X4632206Y-871674D02*
X4651253Y-862150D01*
X4651253Y-862150D02*
X4679825Y-862150D01*
X4679825Y-862150D02*
X4698873Y-871674D01*
X4775063Y-1071674D02*
X4784587Y-1062150D01*
X4784587Y-1062150D02*
X4803634Y-1033579D01*
X4803634Y-1033579D02*
X4813158Y-1014531D01*
X4813158Y-1014531D02*
X4822682Y-985960D01*
X4822682Y-985960D02*
X4832206Y-938341D01*
X4832206Y-938341D02*
X4832206Y-900246D01*
X4832206Y-900246D02*
X4822682Y-852627D01*
X4822682Y-852627D02*
X4813158Y-824055D01*
X4813158Y-824055D02*
X4803634Y-805008D01*
X4803634Y-805008D02*
X4784587Y-776436D01*
X4784587Y-776436D02*
X4775063Y-766912D01*
D11*
X-45720Y-1122280D02*
X-45720Y-1213720D01*
X-91440Y-1168000D02*
X0Y-1168000D01*
D10*
X298872Y-1059484D02*
X317920Y-1059484D01*
X317920Y-1059484D02*
X336967Y-1069008D01*
X336967Y-1069008D02*
X346491Y-1078531D01*
X346491Y-1078531D02*
X356015Y-1097579D01*
X356015Y-1097579D02*
X365539Y-1135674D01*
X365539Y-1135674D02*
X365539Y-1183293D01*
X365539Y-1183293D02*
X356015Y-1221389D01*
X356015Y-1221389D02*
X346491Y-1240436D01*
X346491Y-1240436D02*
X336967Y-1249960D01*
X336967Y-1249960D02*
X317920Y-1259484D01*
X317920Y-1259484D02*
X298872Y-1259484D01*
X298872Y-1259484D02*
X279824Y-1249960D01*
X279824Y-1249960D02*
X270301Y-1240436D01*
X270301Y-1240436D02*
X260777Y-1221389D01*
X260777Y-1221389D02*
X251253Y-1183293D01*
X251253Y-1183293D02*
X251253Y-1135674D01*
X251253Y-1135674D02*
X260777Y-1097579D01*
X260777Y-1097579D02*
X270301Y-1078531D01*
X270301Y-1078531D02*
X279824Y-1069008D01*
X279824Y-1069008D02*
X298872Y-1059484D01*
X451253Y-1240436D02*
X460777Y-1249960D01*
X460777Y-1249960D02*
X451253Y-1259484D01*
X451253Y-1259484D02*
X441729Y-1249960D01*
X441729Y-1249960D02*
X451253Y-1240436D01*
X451253Y-1240436D02*
X451253Y-1259484D01*
X556015Y-1259484D02*
X594110Y-1259484D01*
X594110Y-1259484D02*
X613158Y-1249960D01*
X613158Y-1249960D02*
X622682Y-1240436D01*
X622682Y-1240436D02*
X641729Y-1211865D01*
X641729Y-1211865D02*
X651253Y-1173770D01*
X651253Y-1173770D02*
X651253Y-1097579D01*
X651253Y-1097579D02*
X641729Y-1078531D01*
X641729Y-1078531D02*
X632205Y-1069008D01*
X632205Y-1069008D02*
X613158Y-1059484D01*
X613158Y-1059484D02*
X575063Y-1059484D01*
X575063Y-1059484D02*
X556015Y-1069008D01*
X556015Y-1069008D02*
X546491Y-1078531D01*
X546491Y-1078531D02*
X536967Y-1097579D01*
X536967Y-1097579D02*
X536967Y-1145198D01*
X536967Y-1145198D02*
X546491Y-1164246D01*
X546491Y-1164246D02*
X556015Y-1173770D01*
X556015Y-1173770D02*
X575063Y-1183293D01*
X575063Y-1183293D02*
X613158Y-1183293D01*
X613158Y-1183293D02*
X632205Y-1173770D01*
X632205Y-1173770D02*
X641729Y-1164246D01*
X641729Y-1164246D02*
X651253Y-1145198D01*
X841729Y-1259484D02*
X727443Y-1259484D01*
X784586Y-1259484D02*
X784586Y-1059484D01*
X784586Y-1059484D02*
X765539Y-1088055D01*
X765539Y-1088055D02*
X746491Y-1107103D01*
X746491Y-1107103D02*
X727443Y-1116627D01*
X1013158Y-1126150D02*
X1013158Y-1259484D01*
X965539Y-1049960D02*
X917920Y-1192817D01*
X917920Y-1192817D02*
X1041729Y-1192817D01*
X1117920Y-1259484D02*
X1117920Y-1126150D01*
X1117920Y-1145198D02*
X1127444Y-1135674D01*
X1127444Y-1135674D02*
X1146491Y-1126150D01*
X1146491Y-1126150D02*
X1175063Y-1126150D01*
X1175063Y-1126150D02*
X1194110Y-1135674D01*
X1194110Y-1135674D02*
X1203634Y-1154722D01*
X1203634Y-1154722D02*
X1203634Y-1259484D01*
X1203634Y-1154722D02*
X1213158Y-1135674D01*
X1213158Y-1135674D02*
X1232205Y-1126150D01*
X1232205Y-1126150D02*
X1260777Y-1126150D01*
X1260777Y-1126150D02*
X1279825Y-1135674D01*
X1279825Y-1135674D02*
X1289348Y-1154722D01*
X1289348Y-1154722D02*
X1289348Y-1259484D01*
X1384586Y-1259484D02*
X1384586Y-1126150D01*
X1384586Y-1145198D02*
X1394110Y-1135674D01*
X1394110Y-1135674D02*
X1413158Y-1126150D01*
X1413158Y-1126150D02*
X1441729Y-1126150D01*
X1441729Y-1126150D02*
X1460777Y-1135674D01*
X1460777Y-1135674D02*
X1470301Y-1154722D01*
X1470301Y-1154722D02*
X1470301Y-1259484D01*
X1470301Y-1154722D02*
X1479824Y-1135674D01*
X1479824Y-1135674D02*
X1498872Y-1126150D01*
X1498872Y-1126150D02*
X1527443Y-1126150D01*
X1527443Y-1126150D02*
X1546491Y-1135674D01*
X1546491Y-1135674D02*
X1556015Y-1154722D01*
X1556015Y-1154722D02*
X1556015Y-1259484D01*
X1946491Y-1049960D02*
X1775063Y-1307103D01*
X2203634Y-1059484D02*
X2222682Y-1059484D01*
X2222682Y-1059484D02*
X2241729Y-1069008D01*
X2241729Y-1069008D02*
X2251253Y-1078531D01*
X2251253Y-1078531D02*
X2260777Y-1097579D01*
X2260777Y-1097579D02*
X2270301Y-1135674D01*
X2270301Y-1135674D02*
X2270301Y-1183293D01*
X2270301Y-1183293D02*
X2260777Y-1221389D01*
X2260777Y-1221389D02*
X2251253Y-1240436D01*
X2251253Y-1240436D02*
X2241729Y-1249960D01*
X2241729Y-1249960D02*
X2222682Y-1259484D01*
X2222682Y-1259484D02*
X2203634Y-1259484D01*
X2203634Y-1259484D02*
X2184587Y-1249960D01*
X2184587Y-1249960D02*
X2175063Y-1240436D01*
X2175063Y-1240436D02*
X2165539Y-1221389D01*
X2165539Y-1221389D02*
X2156015Y-1183293D01*
X2156015Y-1183293D02*
X2156015Y-1135674D01*
X2156015Y-1135674D02*
X2165539Y-1097579D01*
X2165539Y-1097579D02*
X2175063Y-1078531D01*
X2175063Y-1078531D02*
X2184587Y-1069008D01*
X2184587Y-1069008D02*
X2203634Y-1059484D01*
X2356015Y-1240436D02*
X2365539Y-1249960D01*
X2365539Y-1249960D02*
X2356015Y-1259484D01*
X2356015Y-1259484D02*
X2346491Y-1249960D01*
X2346491Y-1249960D02*
X2356015Y-1240436D01*
X2356015Y-1240436D02*
X2356015Y-1259484D01*
X2489348Y-1059484D02*
X2508396Y-1059484D01*
X2508396Y-1059484D02*
X2527444Y-1069008D01*
X2527444Y-1069008D02*
X2536968Y-1078531D01*
X2536968Y-1078531D02*
X2546491Y-1097579D01*
X2546491Y-1097579D02*
X2556015Y-1135674D01*
X2556015Y-1135674D02*
X2556015Y-1183293D01*
X2556015Y-1183293D02*
X2546491Y-1221389D01*
X2546491Y-1221389D02*
X2536968Y-1240436D01*
X2536968Y-1240436D02*
X2527444Y-1249960D01*
X2527444Y-1249960D02*
X2508396Y-1259484D01*
X2508396Y-1259484D02*
X2489348Y-1259484D01*
X2489348Y-1259484D02*
X2470301Y-1249960D01*
X2470301Y-1249960D02*
X2460777Y-1240436D01*
X2460777Y-1240436D02*
X2451253Y-1221389D01*
X2451253Y-1221389D02*
X2441729Y-1183293D01*
X2441729Y-1183293D02*
X2441729Y-1135674D01*
X2441729Y-1135674D02*
X2451253Y-1097579D01*
X2451253Y-1097579D02*
X2460777Y-1078531D01*
X2460777Y-1078531D02*
X2470301Y-1069008D01*
X2470301Y-1069008D02*
X2489348Y-1059484D01*
X2622682Y-1059484D02*
X2746491Y-1059484D01*
X2746491Y-1059484D02*
X2679825Y-1135674D01*
X2679825Y-1135674D02*
X2708396Y-1135674D01*
X2708396Y-1135674D02*
X2727444Y-1145198D01*
X2727444Y-1145198D02*
X2736968Y-1154722D01*
X2736968Y-1154722D02*
X2746491Y-1173770D01*
X2746491Y-1173770D02*
X2746491Y-1221389D01*
X2746491Y-1221389D02*
X2736968Y-1240436D01*
X2736968Y-1240436D02*
X2727444Y-1249960D01*
X2727444Y-1249960D02*
X2708396Y-1259484D01*
X2708396Y-1259484D02*
X2651253Y-1259484D01*
X2651253Y-1259484D02*
X2632206Y-1249960D01*
X2632206Y-1249960D02*
X2622682Y-1240436D01*
X2917920Y-1059484D02*
X2879825Y-1059484D01*
X2879825Y-1059484D02*
X2860777Y-1069008D01*
X2860777Y-1069008D02*
X2851253Y-1078531D01*
X2851253Y-1078531D02*
X2832206Y-1107103D01*
X2832206Y-1107103D02*
X2822682Y-1145198D01*
X2822682Y-1145198D02*
X2822682Y-1221389D01*
X2822682Y-1221389D02*
X2832206Y-1240436D01*
X2832206Y-1240436D02*
X2841729Y-1249960D01*
X2841729Y-1249960D02*
X2860777Y-1259484D01*
X2860777Y-1259484D02*
X2898872Y-1259484D01*
X2898872Y-1259484D02*
X2917920Y-1249960D01*
X2917920Y-1249960D02*
X2927444Y-1240436D01*
X2927444Y-1240436D02*
X2936967Y-1221389D01*
X2936967Y-1221389D02*
X2936967Y-1173770D01*
X2936967Y-1173770D02*
X2927444Y-1154722D01*
X2927444Y-1154722D02*
X2917920Y-1145198D01*
X2917920Y-1145198D02*
X2898872Y-1135674D01*
X2898872Y-1135674D02*
X2860777Y-1135674D01*
X2860777Y-1135674D02*
X2841729Y-1145198D01*
X2841729Y-1145198D02*
X2832206Y-1154722D01*
X2832206Y-1154722D02*
X2822682Y-1173770D01*
X3060777Y-1059484D02*
X3079825Y-1059484D01*
X3079825Y-1059484D02*
X3098872Y-1069008D01*
X3098872Y-1069008D02*
X3108396Y-1078531D01*
X3108396Y-1078531D02*
X3117920Y-1097579D01*
X3117920Y-1097579D02*
X3127444Y-1135674D01*
X3127444Y-1135674D02*
X3127444Y-1183293D01*
X3127444Y-1183293D02*
X3117920Y-1221389D01*
X3117920Y-1221389D02*
X3108396Y-1240436D01*
X3108396Y-1240436D02*
X3098872Y-1249960D01*
X3098872Y-1249960D02*
X3079825Y-1259484D01*
X3079825Y-1259484D02*
X3060777Y-1259484D01*
X3060777Y-1259484D02*
X3041729Y-1249960D01*
X3041729Y-1249960D02*
X3032206Y-1240436D01*
X3032206Y-1240436D02*
X3022682Y-1221389D01*
X3022682Y-1221389D02*
X3013158Y-1183293D01*
X3013158Y-1183293D02*
X3013158Y-1135674D01*
X3013158Y-1135674D02*
X3022682Y-1097579D01*
X3022682Y-1097579D02*
X3032206Y-1078531D01*
X3032206Y-1078531D02*
X3041729Y-1069008D01*
X3041729Y-1069008D02*
X3060777Y-1059484D01*
X3203634Y-1059484D02*
X3203634Y-1097579D01*
X3279825Y-1059484D02*
X3279825Y-1097579D01*
X3575063Y-1335674D02*
X3565539Y-1326150D01*
X3565539Y-1326150D02*
X3546491Y-1297579D01*
X3546491Y-1297579D02*
X3536968Y-1278531D01*
X3536968Y-1278531D02*
X3527444Y-1249960D01*
X3527444Y-1249960D02*
X3517920Y-1202341D01*
X3517920Y-1202341D02*
X3517920Y-1164246D01*
X3517920Y-1164246D02*
X3527444Y-1116627D01*
X3527444Y-1116627D02*
X3536968Y-1088055D01*
X3536968Y-1088055D02*
X3546491Y-1069008D01*
X3546491Y-1069008D02*
X3565539Y-1040436D01*
X3565539Y-1040436D02*
X3575063Y-1030912D01*
X3632206Y-1059484D02*
X3765539Y-1059484D01*
X3765539Y-1059484D02*
X3679825Y-1259484D01*
X3936968Y-1059484D02*
X3841729Y-1059484D01*
X3841729Y-1059484D02*
X3832206Y-1154722D01*
X3832206Y-1154722D02*
X3841729Y-1145198D01*
X3841729Y-1145198D02*
X3860777Y-1135674D01*
X3860777Y-1135674D02*
X3908396Y-1135674D01*
X3908396Y-1135674D02*
X3927444Y-1145198D01*
X3927444Y-1145198D02*
X3936968Y-1154722D01*
X3936968Y-1154722D02*
X3946491Y-1173770D01*
X3946491Y-1173770D02*
X3946491Y-1221389D01*
X3946491Y-1221389D02*
X3936968Y-1240436D01*
X3936968Y-1240436D02*
X3927444Y-1249960D01*
X3927444Y-1249960D02*
X3908396Y-1259484D01*
X3908396Y-1259484D02*
X3860777Y-1259484D01*
X3860777Y-1259484D02*
X3841729Y-1249960D01*
X3841729Y-1249960D02*
X3832206Y-1240436D01*
X4184587Y-1259484D02*
X4184587Y-1059484D01*
X4270301Y-1259484D02*
X4270301Y-1154722D01*
X4270301Y-1154722D02*
X4260777Y-1135674D01*
X4260777Y-1135674D02*
X4241730Y-1126150D01*
X4241730Y-1126150D02*
X4213158Y-1126150D01*
X4213158Y-1126150D02*
X4194110Y-1135674D01*
X4194110Y-1135674D02*
X4184587Y-1145198D01*
X4394111Y-1259484D02*
X4375063Y-1249960D01*
X4375063Y-1249960D02*
X4365539Y-1240436D01*
X4365539Y-1240436D02*
X4356015Y-1221389D01*
X4356015Y-1221389D02*
X4356015Y-1164246D01*
X4356015Y-1164246D02*
X4365539Y-1145198D01*
X4365539Y-1145198D02*
X4375063Y-1135674D01*
X4375063Y-1135674D02*
X4394111Y-1126150D01*
X4394111Y-1126150D02*
X4422682Y-1126150D01*
X4422682Y-1126150D02*
X4441730Y-1135674D01*
X4441730Y-1135674D02*
X4451253Y-1145198D01*
X4451253Y-1145198D02*
X4460777Y-1164246D01*
X4460777Y-1164246D02*
X4460777Y-1221389D01*
X4460777Y-1221389D02*
X4451253Y-1240436D01*
X4451253Y-1240436D02*
X4441730Y-1249960D01*
X4441730Y-1249960D02*
X4422682Y-1259484D01*
X4422682Y-1259484D02*
X4394111Y-1259484D01*
X4575063Y-1259484D02*
X4556015Y-1249960D01*
X4556015Y-1249960D02*
X4546492Y-1230912D01*
X4546492Y-1230912D02*
X4546492Y-1059484D01*
X4727444Y-1249960D02*
X4708396Y-1259484D01*
X4708396Y-1259484D02*
X4670301Y-1259484D01*
X4670301Y-1259484D02*
X4651253Y-1249960D01*
X4651253Y-1249960D02*
X4641730Y-1230912D01*
X4641730Y-1230912D02*
X4641730Y-1154722D01*
X4641730Y-1154722D02*
X4651253Y-1135674D01*
X4651253Y-1135674D02*
X4670301Y-1126150D01*
X4670301Y-1126150D02*
X4708396Y-1126150D01*
X4708396Y-1126150D02*
X4727444Y-1135674D01*
X4727444Y-1135674D02*
X4736968Y-1154722D01*
X4736968Y-1154722D02*
X4736968Y-1173770D01*
X4736968Y-1173770D02*
X4641730Y-1192817D01*
X4813158Y-1249960D02*
X4832206Y-1259484D01*
X4832206Y-1259484D02*
X4870301Y-1259484D01*
X4870301Y-1259484D02*
X4889349Y-1249960D01*
X4889349Y-1249960D02*
X4898873Y-1230912D01*
X4898873Y-1230912D02*
X4898873Y-1221389D01*
X4898873Y-1221389D02*
X4889349Y-1202341D01*
X4889349Y-1202341D02*
X4870301Y-1192817D01*
X4870301Y-1192817D02*
X4841730Y-1192817D01*
X4841730Y-1192817D02*
X4822682Y-1183293D01*
X4822682Y-1183293D02*
X4813158Y-1164246D01*
X4813158Y-1164246D02*
X4813158Y-1154722D01*
X4813158Y-1154722D02*
X4822682Y-1135674D01*
X4822682Y-1135674D02*
X4841730Y-1126150D01*
X4841730Y-1126150D02*
X4870301Y-1126150D01*
X4870301Y-1126150D02*
X4889349Y-1135674D01*
X4965539Y-1335674D02*
X4975063Y-1326150D01*
X4975063Y-1326150D02*
X4994111Y-1297579D01*
X4994111Y-1297579D02*
X5003634Y-1278531D01*
X5003634Y-1278531D02*
X5013158Y-1249960D01*
X5013158Y-1249960D02*
X5022682Y-1202341D01*
X5022682Y-1202341D02*
X5022682Y-1164246D01*
X5022682Y-1164246D02*
X5013158Y-1116627D01*
X5013158Y-1116627D02*
X5003634Y-1088055D01*
X5003634Y-1088055D02*
X4994111Y-1069008D01*
X4994111Y-1069008D02*
X4975063Y-1040436D01*
X4975063Y-1040436D02*
X4965539Y-1030912D01*
D12*
X-14879Y-1467921D02*
X-14879Y-1396079D01*
X-86721Y-1396079D01*
X-86721Y-1467921D01*
X-14879Y-1467921D01*
D10*
X365539Y-1523484D02*
X251253Y-1523484D01*
X308396Y-1523484D02*
X308396Y-1323484D01*
X308396Y-1323484D02*
X289348Y-1352055D01*
X289348Y-1352055D02*
X270301Y-1371103D01*
X270301Y-1371103D02*
X251253Y-1380627D01*
X451253Y-1504436D02*
X460777Y-1513960D01*
X460777Y-1513960D02*
X451253Y-1523484D01*
X451253Y-1523484D02*
X441729Y-1513960D01*
X441729Y-1513960D02*
X451253Y-1504436D01*
X451253Y-1504436D02*
X451253Y-1523484D01*
X584586Y-1323484D02*
X603634Y-1323484D01*
X603634Y-1323484D02*
X622682Y-1333008D01*
X622682Y-1333008D02*
X632205Y-1342531D01*
X632205Y-1342531D02*
X641729Y-1361579D01*
X641729Y-1361579D02*
X651253Y-1399674D01*
X651253Y-1399674D02*
X651253Y-1447293D01*
X651253Y-1447293D02*
X641729Y-1485388D01*
X641729Y-1485388D02*
X632205Y-1504436D01*
X632205Y-1504436D02*
X622682Y-1513960D01*
X622682Y-1513960D02*
X603634Y-1523484D01*
X603634Y-1523484D02*
X584586Y-1523484D01*
X584586Y-1523484D02*
X565539Y-1513960D01*
X565539Y-1513960D02*
X556015Y-1504436D01*
X556015Y-1504436D02*
X546491Y-1485388D01*
X546491Y-1485388D02*
X536967Y-1447293D01*
X536967Y-1447293D02*
X536967Y-1399674D01*
X536967Y-1399674D02*
X546491Y-1361579D01*
X546491Y-1361579D02*
X556015Y-1342531D01*
X556015Y-1342531D02*
X565539Y-1333008D01*
X565539Y-1333008D02*
X584586Y-1323484D01*
X841729Y-1523484D02*
X727443Y-1523484D01*
X784586Y-1523484D02*
X784586Y-1323484D01*
X784586Y-1323484D02*
X765539Y-1352055D01*
X765539Y-1352055D02*
X746491Y-1371103D01*
X746491Y-1371103D02*
X727443Y-1380627D01*
X1013158Y-1323484D02*
X975062Y-1323484D01*
X975062Y-1323484D02*
X956015Y-1333008D01*
X956015Y-1333008D02*
X946491Y-1342531D01*
X946491Y-1342531D02*
X927443Y-1371103D01*
X927443Y-1371103D02*
X917920Y-1409198D01*
X917920Y-1409198D02*
X917920Y-1485388D01*
X917920Y-1485388D02*
X927443Y-1504436D01*
X927443Y-1504436D02*
X936967Y-1513960D01*
X936967Y-1513960D02*
X956015Y-1523484D01*
X956015Y-1523484D02*
X994110Y-1523484D01*
X994110Y-1523484D02*
X1013158Y-1513960D01*
X1013158Y-1513960D02*
X1022682Y-1504436D01*
X1022682Y-1504436D02*
X1032205Y-1485388D01*
X1032205Y-1485388D02*
X1032205Y-1437769D01*
X1032205Y-1437769D02*
X1022682Y-1418722D01*
X1022682Y-1418722D02*
X1013158Y-1409198D01*
X1013158Y-1409198D02*
X994110Y-1399674D01*
X994110Y-1399674D02*
X956015Y-1399674D01*
X956015Y-1399674D02*
X936967Y-1409198D01*
X936967Y-1409198D02*
X927443Y-1418722D01*
X927443Y-1418722D02*
X917920Y-1437769D01*
X1117920Y-1523484D02*
X1117920Y-1390150D01*
X1117920Y-1409198D02*
X1127444Y-1399674D01*
X1127444Y-1399674D02*
X1146491Y-1390150D01*
X1146491Y-1390150D02*
X1175063Y-1390150D01*
X1175063Y-1390150D02*
X1194110Y-1399674D01*
X1194110Y-1399674D02*
X1203634Y-1418722D01*
X1203634Y-1418722D02*
X1203634Y-1523484D01*
X1203634Y-1418722D02*
X1213158Y-1399674D01*
X1213158Y-1399674D02*
X1232205Y-1390150D01*
X1232205Y-1390150D02*
X1260777Y-1390150D01*
X1260777Y-1390150D02*
X1279825Y-1399674D01*
X1279825Y-1399674D02*
X1289348Y-1418722D01*
X1289348Y-1418722D02*
X1289348Y-1523484D01*
X1384586Y-1523484D02*
X1384586Y-1390150D01*
X1384586Y-1409198D02*
X1394110Y-1399674D01*
X1394110Y-1399674D02*
X1413158Y-1390150D01*
X1413158Y-1390150D02*
X1441729Y-1390150D01*
X1441729Y-1390150D02*
X1460777Y-1399674D01*
X1460777Y-1399674D02*
X1470301Y-1418722D01*
X1470301Y-1418722D02*
X1470301Y-1523484D01*
X1470301Y-1418722D02*
X1479824Y-1399674D01*
X1479824Y-1399674D02*
X1498872Y-1390150D01*
X1498872Y-1390150D02*
X1527443Y-1390150D01*
X1527443Y-1390150D02*
X1546491Y-1399674D01*
X1546491Y-1399674D02*
X1556015Y-1418722D01*
X1556015Y-1418722D02*
X1556015Y-1523484D01*
X1946491Y-1313960D02*
X1775063Y-1571103D01*
X2203634Y-1323484D02*
X2222682Y-1323484D01*
X2222682Y-1323484D02*
X2241729Y-1333008D01*
X2241729Y-1333008D02*
X2251253Y-1342531D01*
X2251253Y-1342531D02*
X2260777Y-1361579D01*
X2260777Y-1361579D02*
X2270301Y-1399674D01*
X2270301Y-1399674D02*
X2270301Y-1447293D01*
X2270301Y-1447293D02*
X2260777Y-1485388D01*
X2260777Y-1485388D02*
X2251253Y-1504436D01*
X2251253Y-1504436D02*
X2241729Y-1513960D01*
X2241729Y-1513960D02*
X2222682Y-1523484D01*
X2222682Y-1523484D02*
X2203634Y-1523484D01*
X2203634Y-1523484D02*
X2184587Y-1513960D01*
X2184587Y-1513960D02*
X2175063Y-1504436D01*
X2175063Y-1504436D02*
X2165539Y-1485388D01*
X2165539Y-1485388D02*
X2156015Y-1447293D01*
X2156015Y-1447293D02*
X2156015Y-1399674D01*
X2156015Y-1399674D02*
X2165539Y-1361579D01*
X2165539Y-1361579D02*
X2175063Y-1342531D01*
X2175063Y-1342531D02*
X2184587Y-1333008D01*
X2184587Y-1333008D02*
X2203634Y-1323484D01*
X2356015Y-1504436D02*
X2365539Y-1513960D01*
X2365539Y-1513960D02*
X2356015Y-1523484D01*
X2356015Y-1523484D02*
X2346491Y-1513960D01*
X2346491Y-1513960D02*
X2356015Y-1504436D01*
X2356015Y-1504436D02*
X2356015Y-1523484D01*
X2489348Y-1323484D02*
X2508396Y-1323484D01*
X2508396Y-1323484D02*
X2527444Y-1333008D01*
X2527444Y-1333008D02*
X2536968Y-1342531D01*
X2536968Y-1342531D02*
X2546491Y-1361579D01*
X2546491Y-1361579D02*
X2556015Y-1399674D01*
X2556015Y-1399674D02*
X2556015Y-1447293D01*
X2556015Y-1447293D02*
X2546491Y-1485388D01*
X2546491Y-1485388D02*
X2536968Y-1504436D01*
X2536968Y-1504436D02*
X2527444Y-1513960D01*
X2527444Y-1513960D02*
X2508396Y-1523484D01*
X2508396Y-1523484D02*
X2489348Y-1523484D01*
X2489348Y-1523484D02*
X2470301Y-1513960D01*
X2470301Y-1513960D02*
X2460777Y-1504436D01*
X2460777Y-1504436D02*
X2451253Y-1485388D01*
X2451253Y-1485388D02*
X2441729Y-1447293D01*
X2441729Y-1447293D02*
X2441729Y-1399674D01*
X2441729Y-1399674D02*
X2451253Y-1361579D01*
X2451253Y-1361579D02*
X2460777Y-1342531D01*
X2460777Y-1342531D02*
X2470301Y-1333008D01*
X2470301Y-1333008D02*
X2489348Y-1323484D01*
X2727444Y-1390150D02*
X2727444Y-1523484D01*
X2679825Y-1313960D02*
X2632206Y-1456817D01*
X2632206Y-1456817D02*
X2756015Y-1456817D01*
X2870301Y-1323484D02*
X2889348Y-1323484D01*
X2889348Y-1323484D02*
X2908396Y-1333008D01*
X2908396Y-1333008D02*
X2917920Y-1342531D01*
X2917920Y-1342531D02*
X2927444Y-1361579D01*
X2927444Y-1361579D02*
X2936967Y-1399674D01*
X2936967Y-1399674D02*
X2936967Y-1447293D01*
X2936967Y-1447293D02*
X2927444Y-1485388D01*
X2927444Y-1485388D02*
X2917920Y-1504436D01*
X2917920Y-1504436D02*
X2908396Y-1513960D01*
X2908396Y-1513960D02*
X2889348Y-1523484D01*
X2889348Y-1523484D02*
X2870301Y-1523484D01*
X2870301Y-1523484D02*
X2851253Y-1513960D01*
X2851253Y-1513960D02*
X2841729Y-1504436D01*
X2841729Y-1504436D02*
X2832206Y-1485388D01*
X2832206Y-1485388D02*
X2822682Y-1447293D01*
X2822682Y-1447293D02*
X2822682Y-1399674D01*
X2822682Y-1399674D02*
X2832206Y-1361579D01*
X2832206Y-1361579D02*
X2841729Y-1342531D01*
X2841729Y-1342531D02*
X2851253Y-1333008D01*
X2851253Y-1333008D02*
X2870301Y-1323484D01*
X3060777Y-1323484D02*
X3079825Y-1323484D01*
X3079825Y-1323484D02*
X3098872Y-1333008D01*
X3098872Y-1333008D02*
X3108396Y-1342531D01*
X3108396Y-1342531D02*
X3117920Y-1361579D01*
X3117920Y-1361579D02*
X3127444Y-1399674D01*
X3127444Y-1399674D02*
X3127444Y-1447293D01*
X3127444Y-1447293D02*
X3117920Y-1485388D01*
X3117920Y-1485388D02*
X3108396Y-1504436D01*
X3108396Y-1504436D02*
X3098872Y-1513960D01*
X3098872Y-1513960D02*
X3079825Y-1523484D01*
X3079825Y-1523484D02*
X3060777Y-1523484D01*
X3060777Y-1523484D02*
X3041729Y-1513960D01*
X3041729Y-1513960D02*
X3032206Y-1504436D01*
X3032206Y-1504436D02*
X3022682Y-1485388D01*
X3022682Y-1485388D02*
X3013158Y-1447293D01*
X3013158Y-1447293D02*
X3013158Y-1399674D01*
X3013158Y-1399674D02*
X3022682Y-1361579D01*
X3022682Y-1361579D02*
X3032206Y-1342531D01*
X3032206Y-1342531D02*
X3041729Y-1333008D01*
X3041729Y-1333008D02*
X3060777Y-1323484D01*
X3203634Y-1323484D02*
X3203634Y-1361579D01*
X3279825Y-1323484D02*
X3279825Y-1361579D01*
X3575063Y-1599674D02*
X3565539Y-1590150D01*
X3565539Y-1590150D02*
X3546491Y-1561579D01*
X3546491Y-1561579D02*
X3536968Y-1542531D01*
X3536968Y-1542531D02*
X3527444Y-1513960D01*
X3527444Y-1513960D02*
X3517920Y-1466341D01*
X3517920Y-1466341D02*
X3517920Y-1428246D01*
X3517920Y-1428246D02*
X3527444Y-1380627D01*
X3527444Y-1380627D02*
X3536968Y-1352055D01*
X3536968Y-1352055D02*
X3546491Y-1333008D01*
X3546491Y-1333008D02*
X3565539Y-1304436D01*
X3565539Y-1304436D02*
X3575063Y-1294912D01*
X3679825Y-1409198D02*
X3660777Y-1399674D01*
X3660777Y-1399674D02*
X3651253Y-1390150D01*
X3651253Y-1390150D02*
X3641729Y-1371103D01*
X3641729Y-1371103D02*
X3641729Y-1361579D01*
X3641729Y-1361579D02*
X3651253Y-1342531D01*
X3651253Y-1342531D02*
X3660777Y-1333008D01*
X3660777Y-1333008D02*
X3679825Y-1323484D01*
X3679825Y-1323484D02*
X3717920Y-1323484D01*
X3717920Y-1323484D02*
X3736968Y-1333008D01*
X3736968Y-1333008D02*
X3746491Y-1342531D01*
X3746491Y-1342531D02*
X3756015Y-1361579D01*
X3756015Y-1361579D02*
X3756015Y-1371103D01*
X3756015Y-1371103D02*
X3746491Y-1390150D01*
X3746491Y-1390150D02*
X3736968Y-1399674D01*
X3736968Y-1399674D02*
X3717920Y-1409198D01*
X3717920Y-1409198D02*
X3679825Y-1409198D01*
X3679825Y-1409198D02*
X3660777Y-1418722D01*
X3660777Y-1418722D02*
X3651253Y-1428246D01*
X3651253Y-1428246D02*
X3641729Y-1447293D01*
X3641729Y-1447293D02*
X3641729Y-1485388D01*
X3641729Y-1485388D02*
X3651253Y-1504436D01*
X3651253Y-1504436D02*
X3660777Y-1513960D01*
X3660777Y-1513960D02*
X3679825Y-1523484D01*
X3679825Y-1523484D02*
X3717920Y-1523484D01*
X3717920Y-1523484D02*
X3736968Y-1513960D01*
X3736968Y-1513960D02*
X3746491Y-1504436D01*
X3746491Y-1504436D02*
X3756015Y-1485388D01*
X3756015Y-1485388D02*
X3756015Y-1447293D01*
X3756015Y-1447293D02*
X3746491Y-1428246D01*
X3746491Y-1428246D02*
X3736968Y-1418722D01*
X3736968Y-1418722D02*
X3717920Y-1409198D01*
X3994110Y-1523484D02*
X3994110Y-1323484D01*
X4079825Y-1523484D02*
X4079825Y-1418722D01*
X4079825Y-1418722D02*
X4070301Y-1399674D01*
X4070301Y-1399674D02*
X4051253Y-1390150D01*
X4051253Y-1390150D02*
X4022682Y-1390150D01*
X4022682Y-1390150D02*
X4003634Y-1399674D01*
X4003634Y-1399674D02*
X3994110Y-1409198D01*
X4203634Y-1523484D02*
X4184587Y-1513960D01*
X4184587Y-1513960D02*
X4175063Y-1504436D01*
X4175063Y-1504436D02*
X4165539Y-1485388D01*
X4165539Y-1485388D02*
X4165539Y-1428246D01*
X4165539Y-1428246D02*
X4175063Y-1409198D01*
X4175063Y-1409198D02*
X4184587Y-1399674D01*
X4184587Y-1399674D02*
X4203634Y-1390150D01*
X4203634Y-1390150D02*
X4232206Y-1390150D01*
X4232206Y-1390150D02*
X4251253Y-1399674D01*
X4251253Y-1399674D02*
X4260777Y-1409198D01*
X4260777Y-1409198D02*
X4270301Y-1428246D01*
X4270301Y-1428246D02*
X4270301Y-1485388D01*
X4270301Y-1485388D02*
X4260777Y-1504436D01*
X4260777Y-1504436D02*
X4251253Y-1513960D01*
X4251253Y-1513960D02*
X4232206Y-1523484D01*
X4232206Y-1523484D02*
X4203634Y-1523484D01*
X4384587Y-1523484D02*
X4365539Y-1513960D01*
X4365539Y-1513960D02*
X4356015Y-1494912D01*
X4356015Y-1494912D02*
X4356015Y-1323484D01*
X4536968Y-1513960D02*
X4517920Y-1523484D01*
X4517920Y-1523484D02*
X4479825Y-1523484D01*
X4479825Y-1523484D02*
X4460777Y-1513960D01*
X4460777Y-1513960D02*
X4451253Y-1494912D01*
X4451253Y-1494912D02*
X4451253Y-1418722D01*
X4451253Y-1418722D02*
X4460777Y-1399674D01*
X4460777Y-1399674D02*
X4479825Y-1390150D01*
X4479825Y-1390150D02*
X4517920Y-1390150D01*
X4517920Y-1390150D02*
X4536968Y-1399674D01*
X4536968Y-1399674D02*
X4546492Y-1418722D01*
X4546492Y-1418722D02*
X4546492Y-1437769D01*
X4546492Y-1437769D02*
X4451253Y-1456817D01*
X4622682Y-1513960D02*
X4641730Y-1523484D01*
X4641730Y-1523484D02*
X4679825Y-1523484D01*
X4679825Y-1523484D02*
X4698873Y-1513960D01*
X4698873Y-1513960D02*
X4708396Y-1494912D01*
X4708396Y-1494912D02*
X4708396Y-1485388D01*
X4708396Y-1485388D02*
X4698873Y-1466341D01*
X4698873Y-1466341D02*
X4679825Y-1456817D01*
X4679825Y-1456817D02*
X4651253Y-1456817D01*
X4651253Y-1456817D02*
X4632206Y-1447293D01*
X4632206Y-1447293D02*
X4622682Y-1428246D01*
X4622682Y-1428246D02*
X4622682Y-1418722D01*
X4622682Y-1418722D02*
X4632206Y-1399674D01*
X4632206Y-1399674D02*
X4651253Y-1390150D01*
X4651253Y-1390150D02*
X4679825Y-1390150D01*
X4679825Y-1390150D02*
X4698873Y-1399674D01*
X4775063Y-1599674D02*
X4784587Y-1590150D01*
X4784587Y-1590150D02*
X4803634Y-1561579D01*
X4803634Y-1561579D02*
X4813158Y-1542531D01*
X4813158Y-1542531D02*
X4822682Y-1513960D01*
X4822682Y-1513960D02*
X4832206Y-1466341D01*
X4832206Y-1466341D02*
X4832206Y-1428246D01*
X4832206Y-1428246D02*
X4822682Y-1380627D01*
X4822682Y-1380627D02*
X4813158Y-1352055D01*
X4813158Y-1352055D02*
X4803634Y-1333008D01*
X4803634Y-1333008D02*
X4784587Y-1304436D01*
X4784587Y-1304436D02*
X4775063Y-1294912D01*
D13*
X-65000Y-1761000D02*
X0Y-1696000D01*
X-65000Y-1631000D01*
X-130000Y-1696000D01*
X-65000Y-1761000D01*
D10*
X365539Y-1787484D02*
X251253Y-1787484D01*
X308396Y-1787484D02*
X308396Y-1587484D01*
X308396Y-1587484D02*
X289348Y-1616055D01*
X289348Y-1616055D02*
X270301Y-1635103D01*
X270301Y-1635103D02*
X251253Y-1644627D01*
X451253Y-1768436D02*
X460777Y-1777960D01*
X460777Y-1777960D02*
X451253Y-1787484D01*
X451253Y-1787484D02*
X441729Y-1777960D01*
X441729Y-1777960D02*
X451253Y-1768436D01*
X451253Y-1768436D02*
X451253Y-1787484D01*
X527444Y-1587484D02*
X651253Y-1587484D01*
X651253Y-1587484D02*
X584586Y-1663674D01*
X584586Y-1663674D02*
X613158Y-1663674D01*
X613158Y-1663674D02*
X632205Y-1673198D01*
X632205Y-1673198D02*
X641729Y-1682722D01*
X641729Y-1682722D02*
X651253Y-1701769D01*
X651253Y-1701769D02*
X651253Y-1749388D01*
X651253Y-1749388D02*
X641729Y-1768436D01*
X641729Y-1768436D02*
X632205Y-1777960D01*
X632205Y-1777960D02*
X613158Y-1787484D01*
X613158Y-1787484D02*
X556015Y-1787484D01*
X556015Y-1787484D02*
X536967Y-1777960D01*
X536967Y-1777960D02*
X527444Y-1768436D01*
X775062Y-1587484D02*
X794110Y-1587484D01*
X794110Y-1587484D02*
X813158Y-1597008D01*
X813158Y-1597008D02*
X822682Y-1606531D01*
X822682Y-1606531D02*
X832205Y-1625579D01*
X832205Y-1625579D02*
X841729Y-1663674D01*
X841729Y-1663674D02*
X841729Y-1711293D01*
X841729Y-1711293D02*
X832205Y-1749388D01*
X832205Y-1749388D02*
X822682Y-1768436D01*
X822682Y-1768436D02*
X813158Y-1777960D01*
X813158Y-1777960D02*
X794110Y-1787484D01*
X794110Y-1787484D02*
X775062Y-1787484D01*
X775062Y-1787484D02*
X756015Y-1777960D01*
X756015Y-1777960D02*
X746491Y-1768436D01*
X746491Y-1768436D02*
X736967Y-1749388D01*
X736967Y-1749388D02*
X727443Y-1711293D01*
X727443Y-1711293D02*
X727443Y-1663674D01*
X727443Y-1663674D02*
X736967Y-1625579D01*
X736967Y-1625579D02*
X746491Y-1606531D01*
X746491Y-1606531D02*
X756015Y-1597008D01*
X756015Y-1597008D02*
X775062Y-1587484D01*
X965539Y-1587484D02*
X984586Y-1587484D01*
X984586Y-1587484D02*
X1003634Y-1597008D01*
X1003634Y-1597008D02*
X1013158Y-1606531D01*
X1013158Y-1606531D02*
X1022682Y-1625579D01*
X1022682Y-1625579D02*
X1032205Y-1663674D01*
X1032205Y-1663674D02*
X1032205Y-1711293D01*
X1032205Y-1711293D02*
X1022682Y-1749388D01*
X1022682Y-1749388D02*
X1013158Y-1768436D01*
X1013158Y-1768436D02*
X1003634Y-1777960D01*
X1003634Y-1777960D02*
X984586Y-1787484D01*
X984586Y-1787484D02*
X965539Y-1787484D01*
X965539Y-1787484D02*
X946491Y-1777960D01*
X946491Y-1777960D02*
X936967Y-1768436D01*
X936967Y-1768436D02*
X927443Y-1749388D01*
X927443Y-1749388D02*
X917920Y-1711293D01*
X917920Y-1711293D02*
X917920Y-1663674D01*
X917920Y-1663674D02*
X927443Y-1625579D01*
X927443Y-1625579D02*
X936967Y-1606531D01*
X936967Y-1606531D02*
X946491Y-1597008D01*
X946491Y-1597008D02*
X965539Y-1587484D01*
X1117920Y-1787484D02*
X1117920Y-1654150D01*
X1117920Y-1673198D02*
X1127444Y-1663674D01*
X1127444Y-1663674D02*
X1146491Y-1654150D01*
X1146491Y-1654150D02*
X1175063Y-1654150D01*
X1175063Y-1654150D02*
X1194110Y-1663674D01*
X1194110Y-1663674D02*
X1203634Y-1682722D01*
X1203634Y-1682722D02*
X1203634Y-1787484D01*
X1203634Y-1682722D02*
X1213158Y-1663674D01*
X1213158Y-1663674D02*
X1232205Y-1654150D01*
X1232205Y-1654150D02*
X1260777Y-1654150D01*
X1260777Y-1654150D02*
X1279825Y-1663674D01*
X1279825Y-1663674D02*
X1289348Y-1682722D01*
X1289348Y-1682722D02*
X1289348Y-1787484D01*
X1384586Y-1787484D02*
X1384586Y-1654150D01*
X1384586Y-1673198D02*
X1394110Y-1663674D01*
X1394110Y-1663674D02*
X1413158Y-1654150D01*
X1413158Y-1654150D02*
X1441729Y-1654150D01*
X1441729Y-1654150D02*
X1460777Y-1663674D01*
X1460777Y-1663674D02*
X1470301Y-1682722D01*
X1470301Y-1682722D02*
X1470301Y-1787484D01*
X1470301Y-1682722D02*
X1479824Y-1663674D01*
X1479824Y-1663674D02*
X1498872Y-1654150D01*
X1498872Y-1654150D02*
X1527443Y-1654150D01*
X1527443Y-1654150D02*
X1546491Y-1663674D01*
X1546491Y-1663674D02*
X1556015Y-1682722D01*
X1556015Y-1682722D02*
X1556015Y-1787484D01*
X1946491Y-1577960D02*
X1775063Y-1835103D01*
X2203634Y-1587484D02*
X2222682Y-1587484D01*
X2222682Y-1587484D02*
X2241729Y-1597008D01*
X2241729Y-1597008D02*
X2251253Y-1606531D01*
X2251253Y-1606531D02*
X2260777Y-1625579D01*
X2260777Y-1625579D02*
X2270301Y-1663674D01*
X2270301Y-1663674D02*
X2270301Y-1711293D01*
X2270301Y-1711293D02*
X2260777Y-1749388D01*
X2260777Y-1749388D02*
X2251253Y-1768436D01*
X2251253Y-1768436D02*
X2241729Y-1777960D01*
X2241729Y-1777960D02*
X2222682Y-1787484D01*
X2222682Y-1787484D02*
X2203634Y-1787484D01*
X2203634Y-1787484D02*
X2184587Y-1777960D01*
X2184587Y-1777960D02*
X2175063Y-1768436D01*
X2175063Y-1768436D02*
X2165539Y-1749388D01*
X2165539Y-1749388D02*
X2156015Y-1711293D01*
X2156015Y-1711293D02*
X2156015Y-1663674D01*
X2156015Y-1663674D02*
X2165539Y-1625579D01*
X2165539Y-1625579D02*
X2175063Y-1606531D01*
X2175063Y-1606531D02*
X2184587Y-1597008D01*
X2184587Y-1597008D02*
X2203634Y-1587484D01*
X2356015Y-1768436D02*
X2365539Y-1777960D01*
X2365539Y-1777960D02*
X2356015Y-1787484D01*
X2356015Y-1787484D02*
X2346491Y-1777960D01*
X2346491Y-1777960D02*
X2356015Y-1768436D01*
X2356015Y-1768436D02*
X2356015Y-1787484D01*
X2489348Y-1587484D02*
X2508396Y-1587484D01*
X2508396Y-1587484D02*
X2527444Y-1597008D01*
X2527444Y-1597008D02*
X2536968Y-1606531D01*
X2536968Y-1606531D02*
X2546491Y-1625579D01*
X2546491Y-1625579D02*
X2556015Y-1663674D01*
X2556015Y-1663674D02*
X2556015Y-1711293D01*
X2556015Y-1711293D02*
X2546491Y-1749388D01*
X2546491Y-1749388D02*
X2536968Y-1768436D01*
X2536968Y-1768436D02*
X2527444Y-1777960D01*
X2527444Y-1777960D02*
X2508396Y-1787484D01*
X2508396Y-1787484D02*
X2489348Y-1787484D01*
X2489348Y-1787484D02*
X2470301Y-1777960D01*
X2470301Y-1777960D02*
X2460777Y-1768436D01*
X2460777Y-1768436D02*
X2451253Y-1749388D01*
X2451253Y-1749388D02*
X2441729Y-1711293D01*
X2441729Y-1711293D02*
X2441729Y-1663674D01*
X2441729Y-1663674D02*
X2451253Y-1625579D01*
X2451253Y-1625579D02*
X2460777Y-1606531D01*
X2460777Y-1606531D02*
X2470301Y-1597008D01*
X2470301Y-1597008D02*
X2489348Y-1587484D01*
X2736968Y-1587484D02*
X2641729Y-1587484D01*
X2641729Y-1587484D02*
X2632206Y-1682722D01*
X2632206Y-1682722D02*
X2641729Y-1673198D01*
X2641729Y-1673198D02*
X2660777Y-1663674D01*
X2660777Y-1663674D02*
X2708396Y-1663674D01*
X2708396Y-1663674D02*
X2727444Y-1673198D01*
X2727444Y-1673198D02*
X2736968Y-1682722D01*
X2736968Y-1682722D02*
X2746491Y-1701769D01*
X2746491Y-1701769D02*
X2746491Y-1749388D01*
X2746491Y-1749388D02*
X2736968Y-1768436D01*
X2736968Y-1768436D02*
X2727444Y-1777960D01*
X2727444Y-1777960D02*
X2708396Y-1787484D01*
X2708396Y-1787484D02*
X2660777Y-1787484D01*
X2660777Y-1787484D02*
X2641729Y-1777960D01*
X2641729Y-1777960D02*
X2632206Y-1768436D01*
X2936967Y-1787484D02*
X2822682Y-1787484D01*
X2879825Y-1787484D02*
X2879825Y-1587484D01*
X2879825Y-1587484D02*
X2860777Y-1616055D01*
X2860777Y-1616055D02*
X2841729Y-1635103D01*
X2841729Y-1635103D02*
X2822682Y-1644627D01*
X3013158Y-1606531D02*
X3022682Y-1597008D01*
X3022682Y-1597008D02*
X3041729Y-1587484D01*
X3041729Y-1587484D02*
X3089348Y-1587484D01*
X3089348Y-1587484D02*
X3108396Y-1597008D01*
X3108396Y-1597008D02*
X3117920Y-1606531D01*
X3117920Y-1606531D02*
X3127444Y-1625579D01*
X3127444Y-1625579D02*
X3127444Y-1644627D01*
X3127444Y-1644627D02*
X3117920Y-1673198D01*
X3117920Y-1673198D02*
X3003634Y-1787484D01*
X3003634Y-1787484D02*
X3127444Y-1787484D01*
X3203634Y-1587484D02*
X3203634Y-1625579D01*
X3279825Y-1587484D02*
X3279825Y-1625579D01*
X3575063Y-1863674D02*
X3565539Y-1854150D01*
X3565539Y-1854150D02*
X3546491Y-1825579D01*
X3546491Y-1825579D02*
X3536968Y-1806531D01*
X3536968Y-1806531D02*
X3527444Y-1777960D01*
X3527444Y-1777960D02*
X3517920Y-1730341D01*
X3517920Y-1730341D02*
X3517920Y-1692246D01*
X3517920Y-1692246D02*
X3527444Y-1644627D01*
X3527444Y-1644627D02*
X3536968Y-1616055D01*
X3536968Y-1616055D02*
X3546491Y-1597008D01*
X3546491Y-1597008D02*
X3565539Y-1568436D01*
X3565539Y-1568436D02*
X3575063Y-1558912D01*
X3632206Y-1587484D02*
X3756015Y-1587484D01*
X3756015Y-1587484D02*
X3689348Y-1663674D01*
X3689348Y-1663674D02*
X3717920Y-1663674D01*
X3717920Y-1663674D02*
X3736968Y-1673198D01*
X3736968Y-1673198D02*
X3746491Y-1682722D01*
X3746491Y-1682722D02*
X3756015Y-1701769D01*
X3756015Y-1701769D02*
X3756015Y-1749388D01*
X3756015Y-1749388D02*
X3746491Y-1768436D01*
X3746491Y-1768436D02*
X3736968Y-1777960D01*
X3736968Y-1777960D02*
X3717920Y-1787484D01*
X3717920Y-1787484D02*
X3660777Y-1787484D01*
X3660777Y-1787484D02*
X3641729Y-1777960D01*
X3641729Y-1777960D02*
X3632206Y-1768436D01*
X3994110Y-1787484D02*
X3994110Y-1587484D01*
X4079825Y-1787484D02*
X4079825Y-1682722D01*
X4079825Y-1682722D02*
X4070301Y-1663674D01*
X4070301Y-1663674D02*
X4051253Y-1654150D01*
X4051253Y-1654150D02*
X4022682Y-1654150D01*
X4022682Y-1654150D02*
X4003634Y-1663674D01*
X4003634Y-1663674D02*
X3994110Y-1673198D01*
X4203634Y-1787484D02*
X4184587Y-1777960D01*
X4184587Y-1777960D02*
X4175063Y-1768436D01*
X4175063Y-1768436D02*
X4165539Y-1749388D01*
X4165539Y-1749388D02*
X4165539Y-1692246D01*
X4165539Y-1692246D02*
X4175063Y-1673198D01*
X4175063Y-1673198D02*
X4184587Y-1663674D01*
X4184587Y-1663674D02*
X4203634Y-1654150D01*
X4203634Y-1654150D02*
X4232206Y-1654150D01*
X4232206Y-1654150D02*
X4251253Y-1663674D01*
X4251253Y-1663674D02*
X4260777Y-1673198D01*
X4260777Y-1673198D02*
X4270301Y-1692246D01*
X4270301Y-1692246D02*
X4270301Y-1749388D01*
X4270301Y-1749388D02*
X4260777Y-1768436D01*
X4260777Y-1768436D02*
X4251253Y-1777960D01*
X4251253Y-1777960D02*
X4232206Y-1787484D01*
X4232206Y-1787484D02*
X4203634Y-1787484D01*
X4384587Y-1787484D02*
X4365539Y-1777960D01*
X4365539Y-1777960D02*
X4356015Y-1758912D01*
X4356015Y-1758912D02*
X4356015Y-1587484D01*
X4536968Y-1777960D02*
X4517920Y-1787484D01*
X4517920Y-1787484D02*
X4479825Y-1787484D01*
X4479825Y-1787484D02*
X4460777Y-1777960D01*
X4460777Y-1777960D02*
X4451253Y-1758912D01*
X4451253Y-1758912D02*
X4451253Y-1682722D01*
X4451253Y-1682722D02*
X4460777Y-1663674D01*
X4460777Y-1663674D02*
X4479825Y-1654150D01*
X4479825Y-1654150D02*
X4517920Y-1654150D01*
X4517920Y-1654150D02*
X4536968Y-1663674D01*
X4536968Y-1663674D02*
X4546492Y-1682722D01*
X4546492Y-1682722D02*
X4546492Y-1701769D01*
X4546492Y-1701769D02*
X4451253Y-1720817D01*
X4622682Y-1777960D02*
X4641730Y-1787484D01*
X4641730Y-1787484D02*
X4679825Y-1787484D01*
X4679825Y-1787484D02*
X4698873Y-1777960D01*
X4698873Y-1777960D02*
X4708396Y-1758912D01*
X4708396Y-1758912D02*
X4708396Y-1749388D01*
X4708396Y-1749388D02*
X4698873Y-1730341D01*
X4698873Y-1730341D02*
X4679825Y-1720817D01*
X4679825Y-1720817D02*
X4651253Y-1720817D01*
X4651253Y-1720817D02*
X4632206Y-1711293D01*
X4632206Y-1711293D02*
X4622682Y-1692246D01*
X4622682Y-1692246D02*
X4622682Y-1682722D01*
X4622682Y-1682722D02*
X4632206Y-1663674D01*
X4632206Y-1663674D02*
X4651253Y-1654150D01*
X4651253Y-1654150D02*
X4679825Y-1654150D01*
X4679825Y-1654150D02*
X4698873Y-1663674D01*
X4775063Y-1863674D02*
X4784587Y-1854150D01*
X4784587Y-1854150D02*
X4803634Y-1825579D01*
X4803634Y-1825579D02*
X4813158Y-1806531D01*
X4813158Y-1806531D02*
X4822682Y-1777960D01*
X4822682Y-1777960D02*
X4832206Y-1730341D01*
X4832206Y-1730341D02*
X4832206Y-1692246D01*
X4832206Y-1692246D02*
X4822682Y-1644627D01*
X4822682Y-1644627D02*
X4813158Y-1616055D01*
X4813158Y-1616055D02*
X4803634Y-1597008D01*
X4803634Y-1597008D02*
X4784587Y-1568436D01*
X4784587Y-1568436D02*
X4775063Y-1558912D01*
D14*
X-140000Y-1890000D02*
X0Y-2030000D01*
X0Y-1890000D02*
X-140000Y-2030000D01*
X0Y-1960000D02*
G75*
G03*
X-140000Y-1960000I-70000J0D01*
G01*
X-140000Y-1960000D02*
G75*
G03*
X0Y-1960000I70000J0D01*
G01*
D10*
X365539Y-2051484D02*
X251253Y-2051484D01*
X308396Y-2051484D02*
X308396Y-1851484D01*
X308396Y-1851484D02*
X289348Y-1880055D01*
X289348Y-1880055D02*
X270301Y-1899103D01*
X270301Y-1899103D02*
X251253Y-1908627D01*
X451253Y-2032436D02*
X460777Y-2041960D01*
X460777Y-2041960D02*
X451253Y-2051484D01*
X451253Y-2051484D02*
X441729Y-2041960D01*
X441729Y-2041960D02*
X451253Y-2032436D01*
X451253Y-2032436D02*
X451253Y-2051484D01*
X632205Y-1918150D02*
X632205Y-2051484D01*
X584586Y-1841960D02*
X536967Y-1984817D01*
X536967Y-1984817D02*
X660777Y-1984817D01*
X775062Y-1851484D02*
X794110Y-1851484D01*
X794110Y-1851484D02*
X813158Y-1861008D01*
X813158Y-1861008D02*
X822682Y-1870531D01*
X822682Y-1870531D02*
X832205Y-1889579D01*
X832205Y-1889579D02*
X841729Y-1927674D01*
X841729Y-1927674D02*
X841729Y-1975293D01*
X841729Y-1975293D02*
X832205Y-2013388D01*
X832205Y-2013388D02*
X822682Y-2032436D01*
X822682Y-2032436D02*
X813158Y-2041960D01*
X813158Y-2041960D02*
X794110Y-2051484D01*
X794110Y-2051484D02*
X775062Y-2051484D01*
X775062Y-2051484D02*
X756015Y-2041960D01*
X756015Y-2041960D02*
X746491Y-2032436D01*
X746491Y-2032436D02*
X736967Y-2013388D01*
X736967Y-2013388D02*
X727443Y-1975293D01*
X727443Y-1975293D02*
X727443Y-1927674D01*
X727443Y-1927674D02*
X736967Y-1889579D01*
X736967Y-1889579D02*
X746491Y-1870531D01*
X746491Y-1870531D02*
X756015Y-1861008D01*
X756015Y-1861008D02*
X775062Y-1851484D01*
X965539Y-1851484D02*
X984586Y-1851484D01*
X984586Y-1851484D02*
X1003634Y-1861008D01*
X1003634Y-1861008D02*
X1013158Y-1870531D01*
X1013158Y-1870531D02*
X1022682Y-1889579D01*
X1022682Y-1889579D02*
X1032205Y-1927674D01*
X1032205Y-1927674D02*
X1032205Y-1975293D01*
X1032205Y-1975293D02*
X1022682Y-2013388D01*
X1022682Y-2013388D02*
X1013158Y-2032436D01*
X1013158Y-2032436D02*
X1003634Y-2041960D01*
X1003634Y-2041960D02*
X984586Y-2051484D01*
X984586Y-2051484D02*
X965539Y-2051484D01*
X965539Y-2051484D02*
X946491Y-2041960D01*
X946491Y-2041960D02*
X936967Y-2032436D01*
X936967Y-2032436D02*
X927443Y-2013388D01*
X927443Y-2013388D02*
X917920Y-1975293D01*
X917920Y-1975293D02*
X917920Y-1927674D01*
X917920Y-1927674D02*
X927443Y-1889579D01*
X927443Y-1889579D02*
X936967Y-1870531D01*
X936967Y-1870531D02*
X946491Y-1861008D01*
X946491Y-1861008D02*
X965539Y-1851484D01*
X1117920Y-2051484D02*
X1117920Y-1918150D01*
X1117920Y-1937198D02*
X1127444Y-1927674D01*
X1127444Y-1927674D02*
X1146491Y-1918150D01*
X1146491Y-1918150D02*
X1175063Y-1918150D01*
X1175063Y-1918150D02*
X1194110Y-1927674D01*
X1194110Y-1927674D02*
X1203634Y-1946722D01*
X1203634Y-1946722D02*
X1203634Y-2051484D01*
X1203634Y-1946722D02*
X1213158Y-1927674D01*
X1213158Y-1927674D02*
X1232205Y-1918150D01*
X1232205Y-1918150D02*
X1260777Y-1918150D01*
X1260777Y-1918150D02*
X1279825Y-1927674D01*
X1279825Y-1927674D02*
X1289348Y-1946722D01*
X1289348Y-1946722D02*
X1289348Y-2051484D01*
X1384586Y-2051484D02*
X1384586Y-1918150D01*
X1384586Y-1937198D02*
X1394110Y-1927674D01*
X1394110Y-1927674D02*
X1413158Y-1918150D01*
X1413158Y-1918150D02*
X1441729Y-1918150D01*
X1441729Y-1918150D02*
X1460777Y-1927674D01*
X1460777Y-1927674D02*
X1470301Y-1946722D01*
X1470301Y-1946722D02*
X1470301Y-2051484D01*
X1470301Y-1946722D02*
X1479824Y-1927674D01*
X1479824Y-1927674D02*
X1498872Y-1918150D01*
X1498872Y-1918150D02*
X1527443Y-1918150D01*
X1527443Y-1918150D02*
X1546491Y-1927674D01*
X1546491Y-1927674D02*
X1556015Y-1946722D01*
X1556015Y-1946722D02*
X1556015Y-2051484D01*
X1946491Y-1841960D02*
X1775063Y-2099103D01*
X2203634Y-1851484D02*
X2222682Y-1851484D01*
X2222682Y-1851484D02*
X2241729Y-1861008D01*
X2241729Y-1861008D02*
X2251253Y-1870531D01*
X2251253Y-1870531D02*
X2260777Y-1889579D01*
X2260777Y-1889579D02*
X2270301Y-1927674D01*
X2270301Y-1927674D02*
X2270301Y-1975293D01*
X2270301Y-1975293D02*
X2260777Y-2013388D01*
X2260777Y-2013388D02*
X2251253Y-2032436D01*
X2251253Y-2032436D02*
X2241729Y-2041960D01*
X2241729Y-2041960D02*
X2222682Y-2051484D01*
X2222682Y-2051484D02*
X2203634Y-2051484D01*
X2203634Y-2051484D02*
X2184587Y-2041960D01*
X2184587Y-2041960D02*
X2175063Y-2032436D01*
X2175063Y-2032436D02*
X2165539Y-2013388D01*
X2165539Y-2013388D02*
X2156015Y-1975293D01*
X2156015Y-1975293D02*
X2156015Y-1927674D01*
X2156015Y-1927674D02*
X2165539Y-1889579D01*
X2165539Y-1889579D02*
X2175063Y-1870531D01*
X2175063Y-1870531D02*
X2184587Y-1861008D01*
X2184587Y-1861008D02*
X2203634Y-1851484D01*
X2356015Y-2032436D02*
X2365539Y-2041960D01*
X2365539Y-2041960D02*
X2356015Y-2051484D01*
X2356015Y-2051484D02*
X2346491Y-2041960D01*
X2346491Y-2041960D02*
X2356015Y-2032436D01*
X2356015Y-2032436D02*
X2356015Y-2051484D01*
X2489348Y-1851484D02*
X2508396Y-1851484D01*
X2508396Y-1851484D02*
X2527444Y-1861008D01*
X2527444Y-1861008D02*
X2536968Y-1870531D01*
X2536968Y-1870531D02*
X2546491Y-1889579D01*
X2546491Y-1889579D02*
X2556015Y-1927674D01*
X2556015Y-1927674D02*
X2556015Y-1975293D01*
X2556015Y-1975293D02*
X2546491Y-2013388D01*
X2546491Y-2013388D02*
X2536968Y-2032436D01*
X2536968Y-2032436D02*
X2527444Y-2041960D01*
X2527444Y-2041960D02*
X2508396Y-2051484D01*
X2508396Y-2051484D02*
X2489348Y-2051484D01*
X2489348Y-2051484D02*
X2470301Y-2041960D01*
X2470301Y-2041960D02*
X2460777Y-2032436D01*
X2460777Y-2032436D02*
X2451253Y-2013388D01*
X2451253Y-2013388D02*
X2441729Y-1975293D01*
X2441729Y-1975293D02*
X2441729Y-1927674D01*
X2441729Y-1927674D02*
X2451253Y-1889579D01*
X2451253Y-1889579D02*
X2460777Y-1870531D01*
X2460777Y-1870531D02*
X2470301Y-1861008D01*
X2470301Y-1861008D02*
X2489348Y-1851484D01*
X2736968Y-1851484D02*
X2641729Y-1851484D01*
X2641729Y-1851484D02*
X2632206Y-1946722D01*
X2632206Y-1946722D02*
X2641729Y-1937198D01*
X2641729Y-1937198D02*
X2660777Y-1927674D01*
X2660777Y-1927674D02*
X2708396Y-1927674D01*
X2708396Y-1927674D02*
X2727444Y-1937198D01*
X2727444Y-1937198D02*
X2736968Y-1946722D01*
X2736968Y-1946722D02*
X2746491Y-1965769D01*
X2746491Y-1965769D02*
X2746491Y-2013388D01*
X2746491Y-2013388D02*
X2736968Y-2032436D01*
X2736968Y-2032436D02*
X2727444Y-2041960D01*
X2727444Y-2041960D02*
X2708396Y-2051484D01*
X2708396Y-2051484D02*
X2660777Y-2051484D01*
X2660777Y-2051484D02*
X2641729Y-2041960D01*
X2641729Y-2041960D02*
X2632206Y-2032436D01*
X2927444Y-1851484D02*
X2832206Y-1851484D01*
X2832206Y-1851484D02*
X2822682Y-1946722D01*
X2822682Y-1946722D02*
X2832206Y-1937198D01*
X2832206Y-1937198D02*
X2851253Y-1927674D01*
X2851253Y-1927674D02*
X2898872Y-1927674D01*
X2898872Y-1927674D02*
X2917920Y-1937198D01*
X2917920Y-1937198D02*
X2927444Y-1946722D01*
X2927444Y-1946722D02*
X2936967Y-1965769D01*
X2936967Y-1965769D02*
X2936967Y-2013388D01*
X2936967Y-2013388D02*
X2927444Y-2032436D01*
X2927444Y-2032436D02*
X2917920Y-2041960D01*
X2917920Y-2041960D02*
X2898872Y-2051484D01*
X2898872Y-2051484D02*
X2851253Y-2051484D01*
X2851253Y-2051484D02*
X2832206Y-2041960D01*
X2832206Y-2041960D02*
X2822682Y-2032436D01*
X3127444Y-2051484D02*
X3013158Y-2051484D01*
X3070301Y-2051484D02*
X3070301Y-1851484D01*
X3070301Y-1851484D02*
X3051253Y-1880055D01*
X3051253Y-1880055D02*
X3032206Y-1899103D01*
X3032206Y-1899103D02*
X3013158Y-1908627D01*
X3203634Y-1851484D02*
X3203634Y-1889579D01*
X3279825Y-1851484D02*
X3279825Y-1889579D01*
X3575063Y-2127674D02*
X3565539Y-2118150D01*
X3565539Y-2118150D02*
X3546491Y-2089579D01*
X3546491Y-2089579D02*
X3536968Y-2070531D01*
X3536968Y-2070531D02*
X3527444Y-2041960D01*
X3527444Y-2041960D02*
X3517920Y-1994341D01*
X3517920Y-1994341D02*
X3517920Y-1956246D01*
X3517920Y-1956246D02*
X3527444Y-1908627D01*
X3527444Y-1908627D02*
X3536968Y-1880055D01*
X3536968Y-1880055D02*
X3546491Y-1861008D01*
X3546491Y-1861008D02*
X3565539Y-1832436D01*
X3565539Y-1832436D02*
X3575063Y-1822912D01*
X3632206Y-1851484D02*
X3756015Y-1851484D01*
X3756015Y-1851484D02*
X3689348Y-1927674D01*
X3689348Y-1927674D02*
X3717920Y-1927674D01*
X3717920Y-1927674D02*
X3736968Y-1937198D01*
X3736968Y-1937198D02*
X3746491Y-1946722D01*
X3746491Y-1946722D02*
X3756015Y-1965769D01*
X3756015Y-1965769D02*
X3756015Y-2013388D01*
X3756015Y-2013388D02*
X3746491Y-2032436D01*
X3746491Y-2032436D02*
X3736968Y-2041960D01*
X3736968Y-2041960D02*
X3717920Y-2051484D01*
X3717920Y-2051484D02*
X3660777Y-2051484D01*
X3660777Y-2051484D02*
X3641729Y-2041960D01*
X3641729Y-2041960D02*
X3632206Y-2032436D01*
X3994110Y-2051484D02*
X3994110Y-1851484D01*
X4079825Y-2051484D02*
X4079825Y-1946722D01*
X4079825Y-1946722D02*
X4070301Y-1927674D01*
X4070301Y-1927674D02*
X4051253Y-1918150D01*
X4051253Y-1918150D02*
X4022682Y-1918150D01*
X4022682Y-1918150D02*
X4003634Y-1927674D01*
X4003634Y-1927674D02*
X3994110Y-1937198D01*
X4203634Y-2051484D02*
X4184587Y-2041960D01*
X4184587Y-2041960D02*
X4175063Y-2032436D01*
X4175063Y-2032436D02*
X4165539Y-2013388D01*
X4165539Y-2013388D02*
X4165539Y-1956246D01*
X4165539Y-1956246D02*
X4175063Y-1937198D01*
X4175063Y-1937198D02*
X4184587Y-1927674D01*
X4184587Y-1927674D02*
X4203634Y-1918150D01*
X4203634Y-1918150D02*
X4232206Y-1918150D01*
X4232206Y-1918150D02*
X4251253Y-1927674D01*
X4251253Y-1927674D02*
X4260777Y-1937198D01*
X4260777Y-1937198D02*
X4270301Y-1956246D01*
X4270301Y-1956246D02*
X4270301Y-2013388D01*
X4270301Y-2013388D02*
X4260777Y-2032436D01*
X4260777Y-2032436D02*
X4251253Y-2041960D01*
X4251253Y-2041960D02*
X4232206Y-2051484D01*
X4232206Y-2051484D02*
X4203634Y-2051484D01*
X4384587Y-2051484D02*
X4365539Y-2041960D01*
X4365539Y-2041960D02*
X4356015Y-2022912D01*
X4356015Y-2022912D02*
X4356015Y-1851484D01*
X4536968Y-2041960D02*
X4517920Y-2051484D01*
X4517920Y-2051484D02*
X4479825Y-2051484D01*
X4479825Y-2051484D02*
X4460777Y-2041960D01*
X4460777Y-2041960D02*
X4451253Y-2022912D01*
X4451253Y-2022912D02*
X4451253Y-1946722D01*
X4451253Y-1946722D02*
X4460777Y-1927674D01*
X4460777Y-1927674D02*
X4479825Y-1918150D01*
X4479825Y-1918150D02*
X4517920Y-1918150D01*
X4517920Y-1918150D02*
X4536968Y-1927674D01*
X4536968Y-1927674D02*
X4546492Y-1946722D01*
X4546492Y-1946722D02*
X4546492Y-1965769D01*
X4546492Y-1965769D02*
X4451253Y-1984817D01*
X4622682Y-2041960D02*
X4641730Y-2051484D01*
X4641730Y-2051484D02*
X4679825Y-2051484D01*
X4679825Y-2051484D02*
X4698873Y-2041960D01*
X4698873Y-2041960D02*
X4708396Y-2022912D01*
X4708396Y-2022912D02*
X4708396Y-2013388D01*
X4708396Y-2013388D02*
X4698873Y-1994341D01*
X4698873Y-1994341D02*
X4679825Y-1984817D01*
X4679825Y-1984817D02*
X4651253Y-1984817D01*
X4651253Y-1984817D02*
X4632206Y-1975293D01*
X4632206Y-1975293D02*
X4622682Y-1956246D01*
X4622682Y-1956246D02*
X4622682Y-1946722D01*
X4622682Y-1946722D02*
X4632206Y-1927674D01*
X4632206Y-1927674D02*
X4651253Y-1918150D01*
X4651253Y-1918150D02*
X4679825Y-1918150D01*
X4679825Y-1918150D02*
X4698873Y-1927674D01*
X4775063Y-2127674D02*
X4784587Y-2118150D01*
X4784587Y-2118150D02*
X4803634Y-2089579D01*
X4803634Y-2089579D02*
X4813158Y-2070531D01*
X4813158Y-2070531D02*
X4822682Y-2041960D01*
X4822682Y-2041960D02*
X4832206Y-1994341D01*
X4832206Y-1994341D02*
X4832206Y-1956246D01*
X4832206Y-1956246D02*
X4822682Y-1908627D01*
X4822682Y-1908627D02*
X4813158Y-1880055D01*
X4813158Y-1880055D02*
X4803634Y-1861008D01*
X4803634Y-1861008D02*
X4784587Y-1832436D01*
X4784587Y-1832436D02*
X4775063Y-1822912D01*
M02*
