M48
; DRILL file {KiCad 7.0.10} date Wed Apr 16 23:10:39 2025
; FORMAT={-:-/ absolute / inch / decimal}
; #@! TF.CreationDate,2025-04-16T23:10:39-06:00
; #@! TF.GenerationSoftware,Kicad,Pcbnew,7.0.10
; #@! TF.FileFunction,Plated,1,2,PTH
FMAT,2
INCH
; #@! TA.AperFunction,Plated,PTH,ViaDrill
T1C0.0157
; #@! TA.AperFunction,Plated,PTH,ComponentDrill
T2C0.0315
; #@! TA.AperFunction,Plated,PTH,ComponentDrill
T3C0.0360
; #@! TA.AperFunction,Plated,PTH,ComponentDrill
T4C0.0400
; #@! TA.AperFunction,Plated,PTH,ComponentDrill
T5C0.0512
; #@! TA.AperFunction,Plated,PTH,ComponentDrill
T6C0.0551
%
G90
G05
T1
X1.9071Y-4.7752
X2.353Y-4.783
X2.353Y-4.783
X2.733Y-4.828
X2.733Y-4.828
X2.768Y-4.785
X3.132Y-4.753
X3.178Y-2.7685
X3.335Y-4.376
X3.335Y-4.376
X3.335Y-4.376
X3.3411Y-2.1502
X3.3411Y-2.1502
X3.366Y-2.605
X3.366Y-2.605
X3.373Y-4.31
X3.373Y-4.31
X3.421Y-4.807
X3.421Y-4.807
X3.54Y-2.74
X3.54Y-2.74
X3.6691Y-3.1622
X3.6691Y-3.1622
X3.6691Y-3.5242
X3.6691Y-3.5242
X3.681Y-2.646
X3.681Y-2.646
X3.791Y-2.57
X3.7914Y-2.5703
X3.8901Y-2.0432
X3.8901Y-2.0432
T2
X2.5706Y-5.3544
X2.5706Y-5.6544
X2.6706Y-5.3544
X2.6706Y-5.6544
X2.7706Y-5.3544
X2.7706Y-5.6544
X2.8706Y-5.3544
X2.8706Y-5.6544
T3
X1.903Y-2.852
X1.903Y-3.752
X1.903Y-4.652
X2.003Y-2.852
X2.003Y-3.752
X2.003Y-4.652
X2.103Y-2.852
X2.103Y-4.652
X2.303Y-2.852
X2.303Y-2.952
X2.303Y-4.552
X2.303Y-4.652
X2.403Y-2.852
X2.403Y-2.952
X2.403Y-4.552
X2.403Y-4.652
X2.503Y-2.852
X2.503Y-2.952
X2.503Y-4.552
X2.503Y-4.652
X2.603Y-2.852
X2.603Y-2.952
X2.603Y-4.552
X2.603Y-4.652
X2.703Y-2.852
X2.703Y-2.952
X2.703Y-4.552
X2.703Y-4.652
X2.803Y-2.852
X2.803Y-2.952
X2.803Y-4.552
X2.803Y-4.652
X2.903Y-2.852
X2.903Y-2.952
X2.903Y-4.552
X2.903Y-4.652
X3.003Y-2.852
X3.003Y-2.952
X3.003Y-4.552
X3.003Y-4.652
X3.103Y-2.852
X3.103Y-2.952
X3.103Y-4.552
X3.103Y-4.652
X3.203Y-2.852
X3.203Y-2.952
X3.203Y-4.552
X3.203Y-4.652
X3.603Y-3.752
X3.603Y-3.852
X3.603Y-3.952
X3.603Y-4.152
X3.603Y-4.252
X3.603Y-4.352
X3.603Y-4.452
X3.603Y-4.552
X3.603Y-4.652
X3.604Y-4.052
X3.703Y-3.752
X3.703Y-3.852
X3.703Y-3.952
X3.703Y-4.152
X3.703Y-4.252
X3.703Y-4.352
X3.703Y-4.452
X3.703Y-4.552
X3.703Y-4.652
X3.704Y-4.052
X4.603Y-4.052
X4.603Y-4.152
X4.603Y-4.252
X4.603Y-4.352
X4.603Y-4.452
X4.603Y-4.552
X4.603Y-4.652
T4
X1.9061Y-3.252
X1.9061Y-4.252
X2.103Y-3.252
X2.103Y-4.252
X3.503Y-2.852
X3.503Y-3.0489
X3.503Y-3.252
X3.503Y-3.4489
T5
X1.8562Y-5.2481
X1.8562Y-5.445
X1.8562Y-5.6419
T6
X3.6695Y-5.3723
X3.9955Y-5.3713
X4.3185Y-5.3703
M30
